<?xml version="1.0" encoding="utf-8"?>
<svg xmlns="http://www.w3.org/2000/svg" xmlns:cc="http://creativecommons.org/ns#" xmlns:dc="http://purl.org/dc/elements/1.1/" xmlns:rdf="http://www.w3.org/1999/02/22-rdf-syntax-ns#" version="1.1" viewBox="0 0 360 126">
	<metadata>
		<rdf:RDF>
			<cc:Work rdf:about="">
				<dc:format>image/svg+xml</dc:format>
				<dc:type rdf:resource="http://purl.org/dc/dcmitype/StillImage"/>
			</cc:Work>
		</rdf:RDF>
		<title>CC BY-NC-SA badge.</title>
	</metadata>
	<g transform="scale(3)">
		<rect fill="#aab2ab" height="41" rx="2" ry="2" stroke="#000" width="119" x=".5" y=".5"/>
		<path d="m0 29.5v12.5h120v-12.5h-83.717a17.5 17.5 0 0 1-15.383 9.25 17.5 17.5 0 0 1-15.385-9.25h-5.5156z"/>
	</g>
	<g transform="scale(3)">
		<circle cx="20.9" cy="19.25" fill="#fff" r="14" stroke="#000" stroke-width="3"/>
		<path d="m465.69-61.374c-0.86121-0.01231-1.7227 0.15234-2.4936 0.49421-3.1479 1.4041-3.7807 5.7341-2.1725 8.5086 2.0183 3.3285 7.7049 3.0565 9.3638-0.49877-0.65166-0.34701-1.3021-0.69377-1.9539-1.0408-0.7468 0.1578-1.6764 2.0753-3.113 1.3846-2.0998-0.48416-2.0593-3.2498-1.61-4.9056 0.48268-2.0115 3.6503-2.0237 4.2197-0.04327 0.80418-0.41143 1.6097-0.82288 2.4139-1.2344-0.87363-1.7508-2.7599-2.6375-4.6546-2.6646zm10.521 0c-0.86338-0.01115-1.7302 0.15368-2.5027 0.49421-3.1334 1.4148-3.7281 5.7433-2.136 8.5086 2.012 3.3284 7.6953 3.0558 9.348-0.49877-0.66782-0.34784-1.3361-0.69524-2.004-1.0431-0.69787 0.23979-1.6673 2.0367-3.0834 1.387-2.1202-0.46123-2.1122-3.2418-1.6419-4.9056 0.49843-1.9949 3.6584-2.0381 4.2242-0.04327 0.81965-0.41143 1.6375-0.82288 2.4571-1.2344-0.87333-1.7589-2.762-2.6401-4.6615-2.6646z" transform="matrix(.86749 0 0 .86739 -387.29 67.566)"/>
	</g>
	<g>
		<circle cx="155.5" cy="46.75" fill="#fff" r="32" stroke="#000" stroke-width="7"/>
		<path d="m164.86 38.193c0-1.2416-1.0074-2.2474-2.2476-2.2474h-14.228c-1.2403 0-2.2476 1.0058-2.2476 2.2474v14.228h3.9681v16.848h10.784v-16.848h3.9711v-14.228h3e-5z" stroke-width="2.9812"/>
		<circle cx="155.5" cy="29.03" r="4.8"/>
	</g>
	<circle cx="233.5" cy="46.75" fill="#fff" r="32" stroke="#000" stroke-width="7"/>
	<rect height="7" transform="rotate(24 233.5 46.75)" width="69" x="199" y="43.25"/>
	<path d="m233.46 11.25c9.9529 0 18.364 3.4323 25.236 10.291 6.875 6.8633 10.309 15.265 10.309 25.202s-3.378 18.249-10.128 24.935c-7.1719 7.0398-15.642 10.558-25.417 10.558-9.6556 0-17.98-3.4904-24.968-10.471-6.9908-6.9777-10.487-15.321-10.487-25.023s3.497-18.103 10.487-25.202c6.8125-6.8588 15.134-10.291 24.968-10.291zm-27.466 25.959c-1.0607 2.9942-1.5895 6.1726-1.5895 9.535 0 7.8686 2.8729 14.669 8.6187 20.408 5.7456 5.7373 12.588 8.6071 20.526 8.6071s14.84-2.8977 20.704-8.6961c1.9608-1.8966 3.58-3.9655 4.8486-6.2082l-13.381-5.9588c-0.90608 4.5031-4.9198 7.5418-9.7715 7.8997v5.4732h-4.0761v-5.4732c-3.9809-0.04598-7.8313-1.6753-10.776-4.2505l4.8901-4.928c2.3558 2.2145 4.709 3.2096 7.9237 3.2096 2.0856 0 4.394-0.81397 4.394-3.5288 0-0.95947-0.37437-1.6293-0.95953-2.1313l-3.384-1.5075-4.2157-1.8758c-2.0856-0.92818-3.8504-1.7125-5.6214-2.5026l-18.132-8.072zm27.556-19.569c-8.0574 0-14.867 2.8382-20.437 8.5192-1.5154 1.5283-2.8344 3.1264-3.9544 4.7944l13.571 6.0404c1.227-3.7636 4.8043-6.0477 9.1445-6.302v-5.4728h4.0761v5.4728c2.8075 0.13667 5.8855 0.90606 8.9216 3.2556l-4.6644 4.793c-1.7232-1.2193-3.8947-2.0793-6.0697-2.0793-1.7647 0-4.2544 0.54059-4.2544 2.755 0 0.34011 0.11304 0.63861 0.31784 0.90156l4.5398 2.0214 3.072 1.3693c1.9668 0.87634 3.8417 1.708 5.7013 2.5367l18.191 8.0975c0.60009-2.3824 0.90014-4.9161 0.90014-7.5983 0-8.1079-2.8431-14.967-8.5266-20.585-5.6298-5.6811-12.472-8.5192-20.529-8.5192z" stroke-width="3.4886"/>
	<g>
		<circle cx="311.5" cy="46.75" fill="#fff" r="32" stroke="#000" stroke-width="7"/>
		<path d="m296.25 41.45c1.3902-8.7808 7.5697-13.473 15.318-13.473 11.138 0 17.928 8.0828 17.928 18.86 0 10.518-7.225 18.686-18.104 18.686-7.4848 0-14.187-4.6035-15.405-13.644h8.7903c0.26283 4.6927 3.309 6.3453 7.6603 6.3453 4.959 0 8.1801-4.6063 8.1801-11.647 0-7.3907-2.783-11.299-8.0078-11.299-3.8288 0-7.1347 1.3914-7.8326 6.1717l2.5554-0.01682-6.9183 6.9207-6.9187-6.9207 2.754 0.01682z" stroke-width="1.869"/>
	</g>
	<g enable-background="new" fill="#fff" transform="matrix(2.9812 0 0 2.9809 -1311.3 -224.19)">
		<path d="m488.56 107.87c0.31738 0 0.60742 0.0283 0.86914 0.084s0.48633 0.14746 0.67383 0.27539c0.18652 0.12695 0.33105 0.29688 0.43457 0.50781 0.10254 0.21191 0.1543 0.47266 0.1543 0.78418 0 0.33594-0.0762 0.61523-0.22949 0.83887-0.15234 0.22461-0.37891 0.40723-0.67773 0.55078 0.41211 0.11816 0.71973 0.3252 0.92285 0.62109s0.30469 0.65234 0.30469 1.0693c0 0.33594-0.0654 0.62695-0.19629 0.87305-0.13086 0.24512-0.30762 0.44629-0.5293 0.60156-0.2207 0.15625-0.47363 0.27148-0.75684 0.3457-0.28418 0.0752-0.5752 0.1123-0.875 0.1123h-3.2363v-6.6641h3.1416v1e-5zm-0.1875 2.6953c0.26172 0 0.47656-0.0625 0.64453-0.18652 0.16895-0.12402 0.25293-0.3252 0.25293-0.60449 0-0.15527-0.0283-0.2832-0.084-0.38184-0.0566-0.0996-0.13086-0.17676-0.22461-0.2334-0.0937-0.0557-0.20117-0.0947-0.32227-0.11621-0.12207-0.0215-0.24805-0.0322-0.37891-0.0322h-1.373v1.5547h1.4854zm0.0859 2.8281c0.14355 0 0.28027-0.0137 0.41113-0.042s0.24609-0.0752 0.34668-0.13965c0.0996-0.0654 0.17871-0.1543 0.23828-0.2666 0.0586-0.11133 0.0889-0.25488 0.0889-0.42871 0-0.3418-0.0967-0.58594-0.29004-0.73242-0.19336-0.14551-0.44922-0.21875-0.7666-0.21875h-1.5996v1.8281h1.5713z"/>
		<path d="m491.27 107.87h1.6426l1.5606 2.6318 1.5518-2.6318h1.6338l-2.4746 4.1064v2.5576h-1.4688v-2.5947l-2.4453-4.0693z"/>
		<path d="m512.83 107.87 2.7842 4.4707h0.0156v-4.4707h1.375v6.6641h-1.4658l-2.7734-4.4619h-0.0186v4.4619h-1.375v-6.6641z"/>
		<path d="m522.57 109.64c-0.0869-0.14062-0.19629-0.26367-0.32715-0.36914s-0.27832-0.18848-0.44336-0.24707c-0.16504-0.0596-0.33789-0.0889-0.51758-0.0889-0.33008 0-0.61035 0.0635-0.84082 0.19141-0.23047 0.12695-0.41699 0.29785-0.55957 0.5127-0.14355 0.21484-0.24805 0.45898-0.31348 0.73242-0.0654 0.27344-0.0977 0.55664-0.0977 0.84863 0 0.28027 0.0322 0.55273 0.0977 0.81641 0.0654 0.26465 0.16992 0.50293 0.31348 0.71387 0.14258 0.21191 0.3291 0.38086 0.55957 0.50879s0.51074 0.19141 0.84082 0.19141c0.44727 0 0.79785-0.13672 1.0498-0.41113 0.25195-0.27344 0.40625-0.63477 0.46191-1.083h1.419c-0.0371 0.41699-0.13379 0.79395-0.28906 1.1299-0.15527 0.33691-0.36133 0.62305-0.61621 0.86035s-0.55371 0.41797-0.89648 0.54297c-0.3418 0.125-0.71875 0.1875-1.1289 0.1875-0.51074 0-0.96973-0.0889-1.3779-0.2666-0.40723-0.17676-0.75195-0.42188-1.0322-0.73242-0.28027-0.31152-0.49609-0.67773-0.64551-1.0977-0.14941-0.4209-0.22461-0.87305-0.22461-1.3594 0-0.49805 0.0752-0.95996 0.22461-1.3867s0.36523-0.79883 0.64551-1.1162 0.625-0.56641 1.0322-0.74707c0.4082-0.18066 0.86719-0.27051 1.3779-0.27051 0.36719 0 0.71387 0.0527 1.04 0.15918 0.32715 0.10547 0.62012 0.25977 0.87793 0.46289 0.25879 0.20215 0.47168 0.45312 0.63965 0.75195s0.27344 0.6416 0.31738 1.0273h-1.419c-0.0254-0.16797-0.0811-0.32226-0.16796-0.46191z"/>
		<path d="m538.92 112.88c0.0811 0.15527 0.1875 0.28125 0.32129 0.37793 0.13379 0.0967 0.29004 0.16797 0.4707 0.21484 0.17969 0.0469 0.36523 0.0703 0.55859 0.0703 0.12988 0 0.26953-0.0107 0.41895-0.0332 0.14844-0.0215 0.28809-0.0635 0.41895-0.12598 0.12988-0.0615 0.23828-0.14746 0.32617-0.25684 0.0859-0.1084 0.12988-0.24707 0.12988-0.41504 0-0.18066-0.0576-0.32617-0.17285-0.43848-0.11426-0.1123-0.26562-0.20508-0.45117-0.28027-0.18652-0.0742-0.39844-0.13965-0.63379-0.19629-0.23633-0.0557-0.47559-0.11816-0.71777-0.18652-0.24902-0.0625-0.49121-0.13867-0.72754-0.22852-0.23535-0.0898-0.44727-0.20703-0.63379-0.35059-0.18555-0.14258-0.33691-0.32129-0.45117-0.53613-0.11523-0.21484-0.17285-0.47461-0.17285-0.7793 0-0.34277 0.0732-0.63965 0.21875-0.8916 0.14648-0.25195 0.33789-0.46191 0.57324-0.63086 0.23633-0.16797 0.50391-0.29199 0.80273-0.37305 0.29785-0.081 0.59668-0.12109 0.89453-0.12109 0.34863 0 0.68262 0.0391 1.0029 0.11719 0.31934 0.0772 0.60449 0.2041 0.85254 0.37793 0.24902 0.1748 0.44629 0.39746 0.59277 0.66797 0.14551 0.27148 0.21875 0.59961 0.21875 0.98535h-1.4219c-0.0127-0.19922-0.0537-0.36426-0.125-0.49414-0.0713-0.13086-0.16602-0.2334-0.28418-0.30859-0.11719-0.0742-0.25195-0.12793-0.40332-0.1582-0.15137-0.0312-0.31738-0.0469-0.49707-0.0469-0.11719 0-0.23535 0.0127-0.35254 0.0371-0.11816 0.0254-0.22461 0.0684-0.32031 0.13086-0.0967 0.0625-0.1748 0.13965-0.2373 0.2334-0.0615 0.0937-0.0928 0.21191-0.0928 0.35449 0 0.13086 0.0244 0.2373 0.0742 0.31738 0.0498 0.0811 0.14746 0.15625 0.29395 0.22461 0.14649 0.0684 0.34766 0.13672 0.60547 0.20508 0.25781 0.0684 0.5957 0.15625 1.0117 0.26172 0.12402 0.0244 0.29688 0.0703 0.5166 0.13574 0.2207 0.0654 0.44043 0.16895 0.65723 0.3125 0.21777 0.14355 0.40527 0.33496 0.56445 0.57422 0.1582 0.23926 0.2373 0.5459 0.2373 0.91992 0 0.30469-0.0596 0.58789-0.17773 0.84961-0.11816 0.26172-0.29395 0.4873-0.52734 0.67676-0.2334 0.19043-0.52246 0.33789-0.86816 0.44336-0.34473 0.10645-0.74414 0.15918-1.1992 0.15918-0.36719 0-0.72266-0.0459-1.0684-0.13574-0.3457-0.0908-0.65039-0.23242-0.91406-0.42578-0.26465-0.19336-0.47461-0.44043-0.63086-0.73926-0.15527-0.29883-0.23047-0.65332-0.22363-1.0644h1.4219c-3e-5 0.22364 0.04 0.41407 0.12107 0.56934z"/>
		<path d="m547.17 107.87 2.4922 6.6641h-1.5215l-0.50391-1.4844h-2.4922l-0.52344 1.4844h-1.4746l2.5205-6.6641h1.5029zm0.084 4.0859-0.83984-2.4434h-0.0195l-0.86719 2.4434h1.7266z"/>
	</g>
</svg>
