<?xml version="1.0" encoding="utf-8"?>
<svg xmlns="http://www.w3.org/2000/svg" viewBox="0 0 512 512">
	<title>Colored marigold icon.</title>
	<rect fill="#000" height="512" width="512"/>
	<g fill="#66B032">
		<path d="m110.95 396.78c-0.0902 3.5266-0.0895 6.9962 8e-3 10.4 0.0973 3.4042 0.29279 6.7433 0.59375 10.01 0.30095 3.2665 0.7079 6.4605 1.2285 9.5742 0.52062 3.1137 1.1538 6.1481 1.9102 9.0938 0.75631 2.9457 1.6345 5.802 2.6426 8.5644s2.146 5.43 3.4219 7.9941c1.2758 2.5641 2.6904 5.0264 4.25 7.377 1.5596 2.3506 3.2655 4.591 5.125 6.7129 1.0684 1.2191 2.1943 2.4069 3.3809 3.5644 1.1865 1.1576 2.4323 2.2832 3.7422 3.375 1.3099 1.0918 2.6826 2.15 4.1211 3.1719 1.4385 1.0219 2.9433 2.0074 4.5156 2.9551 1.5723 0.94766 3.2125 1.8574 4.9238 2.7266 1.7114 0.86921 3.494 1.6979 5.3496 2.4844 1.8556 0.78652 3.7839 1.5309 5.7891 2.2305 2.0051 0.6996 4.0863 1.3544 6.2461 1.9629 2.1598 0.60844 4.399 1.1706 6.7188 1.6836 2.3198 0.51304 4.7202 0.97723 7.2051 1.3906s5.0537 0.77641 7.709 1.0859c2.6553 0.30952 5.3976 0.56617 8.2285 0.76757 2.8309 0.20141 5.7519 0.34845 8.7637 0.4375 3.0117 0.0891 6.1147 0.11934 9.3125 0.0918 3.1978-0.0275 6.4898-0.11335 9.8789-0.26172s6.8754-0.35937 10.461-0.63281c-0.601-3.1558-1.2504-6.1729-1.9434-9.0606-0.69292-2.8877-1.4289-5.6442-2.207-8.2773-0.77811-2.6331-1.5985-5.1431-2.4551-7.5352-0.85659-2.392-1.7494-4.6675-2.6777-6.832-0.92834-2.1645-1.8914-4.2174-2.8848-6.168-0.99338-1.9505-2.0186-3.7988-3.0703-5.5488-1.0517-1.75-2.1311-3.4018-3.2344-4.9648s-2.2288-3.0362-3.377-4.4258c-1.2931-1.5648-2.6174-3.0343-3.9688-4.4141s-2.7307-2.6695-4.1387-3.8809c-1.4079-1.2114-2.8436-2.3428-4.3066-3.4024-1.463-1.0596-2.9522-2.0483-4.4688-2.9726-1.5165-0.92438-3.0605-1.784-4.6289-2.5898-1.5684-0.8058-3.1624-1.5579-4.7812-2.2617-3.2376-1.4077-6.5742-2.6271-10.004-3.7266-3.43-1.1-6.9415-2.057-10.508-2.9375-3.5663-0.88054-7.1882-1.6853-10.836-2.4785-3.6478-0.79319-7.3218-1.5761-10.996-2.4141-3.6743-0.83792-7.3482-1.7313-10.994-2.7461-2.067-0.575-4.1333-1.2014-6.1875-1.8906-2.0542-0.68927-4.0964-1.44-6.1152-2.2676s-4.0138-1.7308-5.9746-2.7207c-1.9608-0.98989-3.8873-2.0679-5.7676-3.2441z"/>
		<path d="m396.82 373.28c-2.011 1.626-4.1093 3.1321-6.2793 4.5352-2.17 1.4031-4.4103 2.7032-6.7031 3.916-2.2929 1.2128-4.6379 2.3393-7.0176 3.3945-2.3797 1.0552-4.7941 2.0404-7.2246 2.9707-4.024 1.54-8.1272 2.9604-12.262 4.3301-4.1346 1.3697-8.3008 2.6883-12.457 4.0195-4.1562 1.3312-8.3016 2.6749-12.391 4.0996-4.0891 1.4247-8.1217 2.9301-12.055 4.5801-3.9332 1.6505-7.7545 3.4274-11.436 5.3945-1.8405 0.98358-3.6462 2.015-5.4141 3.1016s-3.4968 2.2283-5.1856 3.4336c-1.6887 1.2053-3.3363 2.4745-4.9394 3.8145-1.6032 1.34-3.1626 2.7498-4.6738 4.2402s-2.9739 3.062-4.3867 4.7188c-1.4128 1.6568-2.776 3.3993-4.084 5.2383-1.1762 1.654-2.313 3.3922-3.4043 5.2227-1.0913 1.8304-2.1362 3.7542-3.1328 5.7754s-1.944 4.1408-2.8359 6.3672c-0.89195 2.2264-1.7284 4.5599-2.5059 7.0059-0.7775 2.4459-1.4952 5.0038-2.1484 7.6836-0.65321 2.6798-1.2427 5.4801-1.7617 8.4082-0.51906 2.9281-0.96867 5.985-1.3438 9.1758-0.37508 3.1908-0.67524 6.5166-0.89649 9.9844 4.3001 0.0194 8.4723-0.0302 12.52-0.14453 4.0472-0.11435 7.9702-0.29415 11.771-0.53711 3.8012-0.24296 7.4808-0.54955 11.043-0.91602 3.5621-0.36646 7.006-0.79248 10.336-1.2773 3.3299-0.48486 6.5458-1.0268 9.6504-1.625 3.1046-0.59815 6.0982-1.2526 8.9844-1.959s5.6652-1.466 8.3398-2.2754c2.6747-0.80941 5.2448-1.6688 7.7148-2.5762 2.47-0.90739 4.8391-1.863 7.1113-2.8633 2.2723-1.0002 4.4479-2.0448 6.5293-3.1328 2.0814-1.088 4.0693-2.218 5.9668-3.3887s3.7034-2.3827 5.4238-3.6309c1.7204-1.2482 3.3541-2.5329 4.9043-3.8535 1.5502-1.3206 3.0174-2.6765 4.4043-4.0644s2.6952-2.8096 3.9258-4.2598c1.2306-1.4502 2.3838-2.9302 3.4648-4.4375 0.94706-1.3203 1.8427-2.6696 2.6894-4.0469s1.645-2.7813 2.3945-4.2129c1.499-2.8631 2.8061-5.8333 3.9336-8.8984 1.1275-3.0651 2.0758-6.226 2.8555-9.4727 0.77967-3.2466 1.3902-6.5787 1.8457-9.9863s0.75508-6.8894 0.91015-10.438c0.15508-3.5481 0.16664-7.162 0.0449-10.83-0.12171-3.668-0.37713-7.3907-0.75195-11.158-0.37482-3.7675-0.87036-7.5793-1.4746-11.426z"/>
		<path d="m353.85 340.86c-1.821 1.4795-3.6545 2.8909-5.5 4.2402-1.8455 1.3494-3.7035 2.6363-5.5684 3.8691-3.7297 2.4657-7.492 4.7117-11.268 6.793s-7.5638 3.9989-11.344 5.8047-7.5505 3.4994-11.293 5.1387c-0.4165 4.179-0.96128 8.3526-1.6289 12.514-0.66762 4.1611-1.4581 8.3108-2.3711 12.447 2.764-1.35 5.5404-2.6094 8.3184-3.7754 3.7715-1.5825 7.55-3.0266 11.303-4.373 3.7527-1.3464 7.4807-2.5949 11.148-3.7891 7.3355-2.3882 14.434-4.5559 21.033-6.8379-0.118-5.0665-0.4509-10.28-0.9414-15.623s-1.1387-10.818-1.8887-16.408z"/>
		<path d="m186.85 339.97c-2.1092 4.8857-4.1547 9.7115-6.0996 14.469s-3.79 9.4452-5.502 14.051c-1.7119 4.6056-3.2909 9.1296-4.7012 13.561-1.4103 4.431-2.6514 8.7687-3.6914 13.002 2.807 0.646 5.652 1.335 8.5215 2.0957s5.763 1.5944 8.668 2.5254c3.1195 1.0008 6.2567 2.1294 9.3848 3.4199 3.128 1.2905 6.2475 2.7422 9.3281 4.3887 3.0806 1.6464 6.1223 3.4882 9.0996 5.5566 1.4886 1.0342 2.9618 2.1252 4.4141 3.2773 1.4523 1.1521 2.884 2.3643 4.293 3.6426 1.8365-3.8188 3.5658-7.6495 5.1836-11.484 1.6178-3.8348 3.1251-7.6736 4.5156-11.512s2.6636-7.6753 3.8184-11.504 2.1911-7.6488 3.1016-11.455c-4.204-2.083-8.4493-4.197-12.738-6.459-3.2675-1.7245-6.5476-3.5396-9.8066-5.4844-3.2591-1.9448-6.4957-4.0209-9.6758-6.2656-3.1801-2.2447-6.3034-4.659-9.334-7.2832-1.5153-1.3121-3.008-2.6758-4.4726-4.0976-1.4647-1.4219-2.9014-2.9017-4.3066-4.4434z"/>
		<path d="m259.34 314.49c0.35575 2.4211 0.64837 4.856 0.88086 7.3027 0.23255 2.4474 0.40377 4.9067 0.51562 7.377 0.11186 2.4703 0.16439 4.9511 0.15821 7.4414-6e-3 2.4903-0.0698 4.9905-0.19141 7.498-0.12159 2.5076-0.3008 5.0229-0.53516 7.5449-0.23435 2.522-0.52465 5.0503-0.86914 7.584-0.68896 5.0673-1.5954 10.155-2.709 15.252-1.1136 5.097-2.434 10.202-3.9512 15.307-1.5172 5.1043-3.2313 10.208-5.1309 15.297s-3.9852 10.165-6.2461 15.217c-2.2608 5.0516-4.6959 10.079-7.2969 15.07 1.348 1.9618 2.651 4.0183 3.9082 6.1719 1.2572 2.1536 2.4677 4.4034 3.6309 6.7559 1.1631 2.3525 2.2778 4.8067 3.3438 7.3652 1.0659 2.5586 2.0833 5.2224 3.0488 7.9941 0.947-3.9792 2.0248-7.7745 3.2266-11.393 1.2018-3.618 2.5269-7.0596 3.9688-10.334s3.0008-6.3817 4.668-9.3301 3.4426-5.737 5.3203-8.377c1.2332-1.7338 2.5079-3.4 3.8184-5 1.3104-1.6 2.6574-3.1337 4.0371-4.6074 1.3798-1.4737 2.7912-2.8873 4.2324-4.2422 1.4412-1.3549 2.9115-2.651 4.4062-3.8945 0.87125-2.7198 1.6841-5.4467 2.4395-8.1797 0.75536-2.733 1.4538-5.4725 2.0918-8.2168 0.63797-2.7443 1.2153-5.4943 1.7344-8.248s0.97833-5.5102 1.377-8.2715c0.39863-2.7612 0.737-5.5261 1.0137-8.293 0.27668-2.7668 0.49327-5.5361 0.64649-8.3066s0.24324-5.5421 0.27148-8.3144c0.0283-2.7724-5e-3 -5.5461-0.10351-8.3184-2.9768-1.7192-5.8826-3.5606-8.707-5.5137-2.8244-1.9531-5.5685-4.018-8.2227-6.1856s-5.2177-4.4364-7.6836-6.7988c-2.4652-2.3617-4.8326-4.8165-7.0918-7.3535z"/>
		<path d="m259.34 314.48h2e-3v2e-3c2.2592 2.537 4.6266 4.9918 7.0918 7.3535 2.4659 2.3624 5.0295 4.6313 7.6836 6.7988s5.3982 4.2324 8.2227 6.1856c2.8244 1.9531 5.7303 3.7944 8.707 5.5137 0.0983 2.7722 0.13176 5.546 0.10351 8.3184-0.0282 2.7724-0.11826 5.5439-0.27148 8.3144s-0.36981 5.5398-0.64649 8.3066c-0.27667 2.7669-0.61504 5.5317-1.0137 8.293-0.39862 2.7612-0.8579 5.5178-1.377 8.2715s-1.0964 5.5037-1.7344 8.248c-0.63796 2.7443-1.3364 5.4838-2.0918 8.2168-0.75537 2.733-1.5682 5.4599-2.4395 8.1797-1.4947 1.2435-2.9651 2.5397-4.4062 3.8945-1.4412 1.3549-2.8527 2.7685-4.2324 4.2422-1.3798 1.4737-2.7267 3.0074-4.0371 4.6074-1.3104 1.6-2.5851 3.2662-3.8184 5-1.8777 2.64-3.6532 5.4285-5.3203 8.377s-3.2262 6.0556-4.668 9.3301-2.767 6.7159-3.9688 10.334c-1.2018 3.618-2.2796 7.4133-3.2266 11.393-0.9655-2.7717-1.9829-5.4356-3.0488-7.9941-1.0659-2.5586-2.1806-5.0127-3.3438-7.3652-1.1631-2.3525-2.3737-4.6023-3.6309-6.7559-1.2572-2.1536-2.5602-4.2101-3.9082-6.1719 2.601-4.9916 5.036-10.019 7.2969-15.07 2.2608-5.0516 4.3465-10.128 6.2461-15.217s3.6137-10.193 5.1309-15.297c1.5172-5.1043 2.8376-10.21 3.9512-15.307 1.1136-5.097 2.02-10.185 2.709-15.252 0.34449-2.5336 0.63479-5.062 0.86914-7.584 0.23436-2.522 0.41357-5.0374 0.53516-7.5449 0.12159-2.5076 0.18522-5.0077 0.19141-7.498 6e-3 -2.4903-0.0464-4.9711-0.15821-7.4414-0.11185-2.4703-0.28307-4.9296-0.51562-7.377-0.23249-2.4468-0.52511-4.8816-0.88086-7.3027v-2e-3z"/>
	</g>
	<g fill="#e34234">
		<path d="m241.47 206.56c-3.8519 0.98025-7.6295 2.0833-11.318 3.2988s-7.289 2.5439-10.785 3.9785c-3.4961 1.4347-6.8885 2.9756-10.162 4.6133-3.2736 1.6377-6.4278 3.3726-9.4492 5.1973-3.0214 1.8246-5.909 3.7389-8.6484 5.7344-2.7394 1.9954-5.3321 4.0706-7.7598 6.2207-2.4277 2.1502-4.6911 4.3753-6.7773 6.6641-2.0862 2.2888-3.994 4.6415-5.709 7.0527-1.7941 2.5225-3.4035 5.0958-4.8105 7.7226-0.7035 1.3134-1.3569 2.6398-1.957 3.9805-0.60017 1.3407-1.1482 2.6958-1.6406 4.0644-0.49247 1.3687-0.93014 2.7509-1.3106 4.1484-0.3804 1.3975-0.70282 2.8112-0.96679 4.2383s-0.46816 2.8687-0.61133 4.3262c-0.14317 1.4575-0.22614 2.9313-0.24414 4.4199s0.0291 2.993 0.14062 4.5137c0.11154 1.5206 0.28777 3.056 0.53321 4.6094 0.24543 1.5534 0.55965 3.1241 0.94336 4.7109 0.3837 1.5869 0.83693 3.1913 1.3633 4.8125 0.52634 1.6212 1.1255 3.2578 1.7988 4.9141 0.67334 1.6562 1.4214 3.3313 2.2461 5.0234s1.7266 3.4021 2.707 5.1309c0.98046 1.7288 2.0391 3.476 3.1797 5.2422 3.2715-1.0034 6.5159-2.1036 9.7188-3.2969 3.2028-1.1933 6.3651-2.48 9.4707-3.8516s6.1549-2.829 9.1348-4.3672c2.9799-1.5382 5.8892-3.1564 8.7148-4.8496 2.8256-1.6932 5.5681-3.4604 8.2109-5.2969 2.6429-1.8365 5.1876-3.7428 7.6191-5.7109s4.7497-3.9978 6.9414-6.0859c2.1917-2.0881 4.2563-4.2351 6.1797-6.4316-0.6-1.433-1.1788-2.8722-1.7148-4.3242-1.0516-2.8481-1.9662-5.7398-2.7363-8.6641s-1.3958-5.8803-1.8691-8.8555c-0.47333-2.9751-0.79576-5.97-0.95703-8.9707s-0.16216-6.0088 4e-3 -9.0098c0.16606-3.0009 0.49914-5.9948 1.0078-8.9707 0.50867-2.9759 1.192-5.9339 2.0586-8.8594 0.86655-2.9255 1.9166-5.8181 3.1562-8.668 1.2397-2.8498 2.6707-5.6554 4.2988-8.4043z"/>
		<path d="m264.8 206.5c-1.0869 1.1933-2.1129 2.4-3.0781 3.6191-0.96525 1.2192-1.8703 2.4501-2.7168 3.6934-0.84649 1.2433-1.6347 2.5-2.3652 3.7656s-1.404 2.5418-2.0215 3.8281c-0.61753 1.2863-1.1782 2.5815-1.6856 3.8867-0.50733 1.3052-0.96135 2.619-1.3613 3.9414-0.79996 2.6448-1.3877 5.3224-1.7754 8.0254s-0.57591 5.4324-0.57422 8.1797c2e-3 2.7473 0.19229 5.5133 0.56055 8.291 0.36826 2.7778 0.91497 5.5671 1.627 8.3613 0.71199 2.7943 1.5902 5.5938 2.623 8.3906 1.035 2.8032 2.2382 5.5864 3.5957 8.334 1.3575 2.7476 2.8684 5.4594 4.5215 8.1211 1.6531 2.6616 3.4473 5.273 5.3691 7.8184 1.9218 2.5454 3.9711 5.025 6.1348 7.4238 2.1637 2.3988 4.4417 4.7175 6.8203 6.9395 2.3786 2.222 4.8591 4.3465 7.4258 6.3613 2.5667 2.0148 5.2194 3.9199 7.9473 5.6973 2.7278 1.7774 5.5305 3.4279 8.3926 4.9375 1.7181-1.3325 3.3432-2.6681 4.8789-4.0059 1.5358-1.3378 2.9829-2.6771 4.3418-4.0176 1.3589-1.3404 2.6308-2.6829 3.8184-4.0234s2.2908-2.6795 3.3125-4.0176 1.9608-2.6748 2.8223-4.0078c0.86144-1.333 1.6449-2.663 2.3516-3.9883 0.70666-1.3253 1.3372-2.6458 1.8945-3.9609s1.0415-2.6235 1.4551-3.9258c0.45788-1.4421 0.8402-2.8839 1.1484-4.3223 0.30823-1.4384 0.5427-2.8752 0.70508-4.3106 0.16237-1.4354 0.25314-2.8678 0.27343-4.3008 0.0203-1.433-0.0304-2.8655-0.14843-4.2969-0.118-1.4314-0.30413-2.8626-0.55664-4.293-0.25252-1.4304-0.57183-2.8609-0.95508-4.291-0.38325-1.4301-0.82964-2.8605-1.3398-4.291-0.5102-1.4305-1.0834-2.8614-1.7168-4.293-1.1875-2.685-2.6043-5.3546-4.2305-7.9922-1.6262-2.6376-3.4623-5.2424-5.4844-7.8008-2.0221-2.5584-4.2302-5.0703-6.6055-7.5176-2.3753-2.4473-4.9177-4.8303-7.6035-7.1348-2.6858-2.3044-5.517-4.5284-8.4707-6.6582-2.9537-2.1297-6.0302-4.1647-9.209-6.0879s-6.4591-3.735-9.8203-5.4199c-3.3606-1.6846-6.8005-3.2436-10.301-4.6582z"/>
		<path d="m298.56 202.74c2.505 1.6015 4.9524 3.2695 7.334 5 2.3816 1.7305 4.6966 3.524 6.9394 5.377 2.2428 1.853 4.4134 3.7653 6.502 5.7344 2.0885 1.969 4.0949 3.9936 6.0137 6.0723 1.9187 2.0786 3.7489 4.2108 5.4824 6.3926 1.7335 2.1818 3.3715 4.4129 4.9043 6.6914 1.5328 2.2785 2.9607 4.6038 4.2774 6.9727 1.3166 2.3688 2.5205 4.7818 3.6055 7.2344 1.016 2.2975 1.9201 4.6371 2.7031 7.0117 0.783 2.3746 1.446 4.7852 1.9785 7.2207 0.5325 2.4355 0.93472 4.8968 1.1992 7.377s0.39014 4.9778 0.36914 7.4863c2.6195 0.841 5.2754 1.6287 7.957 2.3652s5.3908 1.4222 8.1172 2.0566c5.4529 1.269 10.976 2.3373 16.504 3.2129 5.5275 0.87563 11.059 1.5586 16.521 2.0606s10.858 0.8227 16.117 0.9707c0.13038-2.0628 0.18679-4.0777 0.16993-6.0449-0.0169-1.9672-0.10631-3.8868-0.26563-5.7617-0.15932-1.8749-0.38854-3.7045-0.68555-5.4902-0.297-1.7857-0.66188-3.5288-1.0918-5.2285-0.42992-1.6997-0.92633-3.3557-1.4844-4.9726-0.55804-1.6169-1.178-3.1932-1.8594-4.7305s-1.4227-3.0372-2.2227-4.498-1.6585-2.8839-2.5723-4.2715c-0.91378-1.3876-1.8834-2.7392-2.9062-4.0566-1.0228-1.3175-2.0995-2.601-3.2266-3.8516-1.127-1.2505-2.3047-2.4675-3.5312-3.6543-1.2265-1.1868-2.501-2.3425-3.8223-3.4688-2.6424-2.2525-5.4703-4.3868-8.4629-6.416s-6.1506-3.9537-9.4551-5.7852c-2.6785-1.4844-5.4532-2.8861-8.3086-4.209-2.8554-1.3228-5.7922-2.5668-8.7949-3.7324-3.0027-1.1656-6.071-2.253-9.1914-3.2656-3.1204-1.0126-6.2915-1.9506-9.5-2.8144-3.2085-0.86384-6.4537-1.6537-9.7207-2.373-3.267-0.71936-6.5556-1.3681-9.8516-1.9473-3.2959-0.57915-6.5993-1.09-9.8945-1.5332-3.2953-0.44319-6.5827-0.81936-9.8477-1.1309z"/>
		<path d="m207.12 198.09c-3.2056 0.0383-6.4131 0.14337-9.6133 0.31641-3.2009 0.17307-6.3951 0.41355-9.5742 0.72461-3.1791 0.31105-6.3434 0.69234-9.4844 1.1445-3.141 0.45218-6.2573 0.97579-9.3438 1.5723-3.0865 0.59647-6.1426 1.2659-9.1582 2.0098-3.0156 0.7439-5.9916 1.5625-8.9199 2.457s-5.8082 1.8658-8.6328 2.9141-5.5942 2.1738-8.2988 3.3789c-3.4945 1.5571-6.8779 3.2346-10.141 5.0391-3.2628 1.8045-6.4044 3.7353-9.4121 5.8008-3.0077 2.0655-5.882 4.2653-8.6113 6.6055-2.7293 2.3402-5.3146 4.8207-7.7422 7.4492-1.2138 1.3143-2.3875 2.6658-3.5215 4.0547s-2.2281 2.816-3.2793 4.2812c-1.0512 1.4653-2.0598 2.9684-3.0254 4.5117-0.9656 1.5434-1.8866 3.1268-2.7637 4.75-0.87704 1.6231-1.7105 3.2856-2.4961 4.9902s-1.5237 3.4504-2.2148 5.2383-1.3339 3.6175-1.9277 5.4902c-0.59385 1.8728-1.1392 3.7887-1.6328 5.748 5.3665 0.44075 10.789 0.70139 16.229 0.77149s10.896-0.0494 16.33-0.36524c5.4336-0.31587 10.845-0.82972 16.193-1.5469 2.6744-0.35858 5.3323-0.76675 7.9707-1.2285 2.6384-0.46177 5.2571-0.97609 7.8496-1.543 0.42625-3.092 1.0431-6.1347 1.8418-9.1191 0.79867-2.9844 1.7789-5.9104 2.9336-8.7695 1.1547-2.8591 2.4823-5.651 3.9766-8.3672 1.4943-2.7162 3.1552-5.3566 4.9727-7.9121 1.5252-2.1446 3.1472-4.2354 4.8613-6.2695 1.7142-2.0342 3.5201-4.0122 5.4121-5.9336 1.892-1.9214 3.8708-3.7854 5.9297-5.5918 2.0589-1.8064 4.1994-3.555 6.4141-5.2441 2.2147-1.6892 4.5038-3.319 6.8633-4.8887 2.3594-1.5697 4.7881-3.0794 7.2812-4.5273 2.4932-1.4479 5.0502-2.8343 7.666-4.1582s5.2901-2.5856 8.0176-3.7832c-0.31535 2e-3 -0.62993-4e-3 -0.94727 0z"/>
		<path d="m207.12 198.09h2e-3c0.31734-4e-3 0.63192 2e-3 0.94727 0-2.7275 1.1976-5.4017 2.4593-8.0176 3.7832s-5.1728 2.7103-7.666 4.1582c-2.4932 1.4479-4.9218 2.9577-7.2812 4.5273-2.3594 1.5697-4.6486 3.1995-6.8633 4.8887-2.2147 1.6892-4.3552 3.4377-6.4141 5.2441-2.0589 1.8064-4.0376 3.6704-5.9297 5.5918-1.892 1.9214-3.6979 3.8994-5.4121 5.9336-1.7142 2.0342-3.3361 4.1249-4.8613 6.2695-1.8175 2.5555-3.4784 5.196-4.9727 7.9121-1.4943 2.7162-2.8219 5.5081-3.9766 8.3672-1.1547 2.8591-2.1349 5.7851-2.9336 8.7695-0.79867 2.9844-1.4155 6.0272-1.8418 9.1191-2.5925 0.56688-5.2112 1.0812-7.8496 1.543-2.6384 0.46177-5.2963 0.86994-7.9707 1.2285-5.3488 0.71715-10.76 1.231-16.193 1.5469-5.4336 0.31588-10.891 0.43533-16.33 0.36524-5.4395-0.0701-10.862-0.33074-16.229-0.77149 0.49362-1.9594 1.039-3.8753 1.6328-5.748 0.59385-1.8728 1.2366-3.7024 1.9277-5.4902s1.4293-3.5336 2.2148-5.2383 1.6191-3.3671 2.4961-4.9902c0.87704-1.6232 1.7981-3.2066 2.7637-4.75 0.9656-1.5434 1.9741-3.0464 3.0254-4.5117 1.0512-1.4653 2.1453-2.8923 3.2793-4.2812s2.3077-2.7404 3.5215-4.0547c2.4276-2.6285 5.0129-5.1091 7.7422-7.4492 2.7293-2.3402 5.6036-4.54 8.6113-6.6055 3.0077-2.0655 6.1493-3.9963 9.4121-5.8008 3.2628-1.8045 6.6461-3.4819 10.141-5.0391 2.7046-1.2051 5.4742-2.3307 8.2988-3.3789s5.7045-2.0196 8.6328-2.9141 5.9044-1.7131 8.9199-2.457c3.0156-0.7439 6.0717-1.4133 9.1582-2.0098 3.0865-0.59647 6.2028-1.1201 9.3438-1.5723 3.141-0.45219 6.3053-0.83348 9.4844-1.1445 3.1791-0.31106 6.3734-0.55154 9.5742-0.72461 3.2002-0.17304 6.4077-0.27814 9.6133-0.31641zm91.439 4.6523c3.265 0.3115 6.5524 0.68767 9.8477 1.1309 3.2953 0.4432 6.5986 0.95406 9.8945 1.5332 3.2959 0.57914 6.5846 1.2279 9.8516 1.9473 3.267 0.71937 6.5122 1.5092 9.7207 2.373 3.2085 0.86384 6.3796 1.8019 9.5 2.8144 3.1204 1.0126 6.1887 2.1 9.1914 3.2656 3.0027 1.1656 5.9395 2.4096 8.7949 3.7324 2.8554 1.3228 5.6301 2.7246 8.3086 4.209 3.3045 1.8315 6.4625 3.7559 9.4551 5.7852s5.8204 4.1636 8.4629 6.416c1.3212 1.1262 2.5957 2.282 3.8223 3.4688 1.2265 1.1868 2.4042 2.4038 3.5312 3.6543 1.1271 1.2505 2.2038 2.5341 3.2266 3.8516 1.0228 1.3175 1.9925 2.6691 2.9062 4.0566 0.91379 1.3876 1.7723 2.8106 2.5723 4.2715s1.5413 2.9608 2.2227 4.498 1.3013 3.1135 1.8594 4.7305c0.55805 1.6169 1.0545 3.2729 1.4844 4.9726 0.42991 1.6997 0.79479 3.4428 1.0918 5.2285 0.29701 1.7857 0.52623 3.6154 0.68555 5.4902 0.15932 1.8749 0.24876 3.7945 0.26563 5.7617 0.0169 1.9672-0.0396 3.9822-0.16993 6.0449-5.259-0.148-10.654-0.46873-16.117-0.9707s-10.994-1.1849-16.521-2.0606c-5.5275-0.87562-11.051-1.9439-16.504-3.2129-2.7264-0.63448-5.4355-1.3201-8.1172-2.0566s-5.3375-1.5242-7.957-2.3652c0.021-2.5085-0.10464-5.0062-0.36914-7.4863s-0.66672-4.9415-1.1992-7.377c-0.5325-2.4355-1.1955-4.8461-1.9785-7.2207-0.783-2.3746-1.6871-4.7142-2.7031-7.0117-1.085-2.4526-2.2888-4.8656-3.6055-7.2344-1.3166-2.3688-2.7445-4.6941-4.2774-6.9727-1.5328-2.2785-3.1708-4.5096-4.9043-6.6914-1.7335-2.1818-3.5637-4.3139-5.4824-6.3926-1.9188-2.0787-3.9252-4.1032-6.0137-6.0723-2.0885-1.969-4.2591-3.8814-6.502-5.7344-2.2428-1.853-4.5578-3.6465-6.9394-5.377-2.3816-1.7305-4.829-3.3985-7.334-5zm-33.762 3.7637h2e-3c3.5003 1.4146 6.9401 2.9736 10.301 4.6582 3.3612 1.6849 6.6415 3.4967 9.8203 5.4199s6.2553 3.9582 9.209 6.0879c2.9536 2.1298 5.7849 4.3538 8.4707 6.6582 2.6858 2.3044 5.2282 4.6875 7.6035 7.1348 2.3753 2.4473 4.5834 4.9592 6.6055 7.5176 2.0221 2.5584 3.8582 5.1632 5.4844 7.8008 1.6261 2.6376 3.043 5.3072 4.2305 7.9922 0.63337 1.4316 1.2066 2.8624 1.7168 4.293 0.51021 1.4305 0.9566 2.8609 1.3398 4.291 0.38325 1.4301 0.70256 2.8606 0.95508 4.291 0.25251 1.4304 0.43864 2.8616 0.55664 4.293 0.118 1.4314 0.16873 2.8638 0.14843 4.2969s-0.11106 2.8654-0.27343 4.3008c-0.16238 1.4354-0.39685 2.8721-0.70508 4.3106-0.30824 1.4384-0.69056 2.8801-1.1484 4.3223-0.41362 1.3022-0.8977 2.6107-1.4551 3.9258s-1.1879 2.6356-1.8945 3.9609c-0.70665 1.3253-1.4901 2.6553-2.3516 3.9883-0.86145 1.333-1.8005 2.6698-2.8223 4.0078s-2.1249 2.677-3.3125 4.0176-2.4594 2.683-3.8184 4.0234c-1.3589 1.3404-2.806 2.6798-4.3418 4.0176-1.5358 1.3378-3.1608 2.6734-4.8789 4.0059-2.8621-1.5096-5.6647-3.1601-8.3926-4.9375-2.7278-1.7774-5.3806-3.6824-7.9473-5.6973-2.5667-2.0148-5.0472-4.1393-7.4258-6.3613-2.3786-2.222-4.6567-4.5406-6.8203-6.9395-2.1636-2.3988-4.2129-4.8784-6.1348-7.4238-1.9218-2.5454-3.716-5.1567-5.3691-7.8184-1.6531-2.6616-3.164-5.3735-4.5215-8.1211-1.3575-2.7476-2.5607-5.5307-3.5957-8.334-1.0329-2.7969-1.9111-5.5964-2.623-8.3906-0.71198-2.7943-1.2587-5.5836-1.627-8.3613-0.36826-2.7777-0.55886-5.5437-0.56055-8.291-2e-3 -2.7473 0.1865-5.4767 0.57422-8.1797s0.97543-5.3806 1.7754-8.0254c0.39998-1.3224 0.854-2.6362 1.3613-3.9414 0.50733-1.3052 1.068-2.6004 1.6856-3.8867 0.61752-1.2863 1.2909-2.5625 2.0215-3.8281s1.5188-2.5223 2.3652-3.7656c0.84649-1.2433 1.7515-2.4742 2.7168-3.6934 0.96526-1.2192 1.9912-2.4258 3.0781-3.6191zm-23.334 0.0527c-1.6281 2.7489-3.0591 5.5544-4.2988 8.4043-1.2397 2.8498-2.2897 5.7424-3.1562 8.668-0.86654 2.9255-1.5499 5.8835-2.0586 8.8594-0.50867 2.9759-0.84175 5.9698-1.0078 8.9707-0.16607 3.0009-0.16518 6.0091-4e-3 9.0098 0.16127 3.0007 0.4837 5.9956 0.95703 8.9707 0.47333 2.9751 1.099 5.9312 1.8691 8.8555s1.6847 5.8159 2.7363 8.6641c0.536 1.452 1.1148 2.8912 1.7148 4.3242-1.9234 2.1965-3.988 4.3435-6.1797 6.4316-2.1917 2.0881-4.5098 4.1178-6.9414 6.0859s-4.9763 3.8745-7.6191 5.7109c-2.6429 1.8365-5.3853 3.6037-8.2109 5.2969-2.8256 1.6932-5.7349 3.3114-8.7148 4.8496-2.9799 1.5382-6.0291 2.9956-9.1348 4.3672s-6.2679 2.6583-9.4707 3.8516c-3.2028 1.1933-6.4472 2.2935-9.7188 3.2969-1.1406-1.7662-2.1992-3.5134-3.1797-5.2422-0.98045-1.7288-1.8823-3.4388-2.707-5.1309s-1.5728-3.3672-2.2461-5.0234c-0.67335-1.6562-1.2725-3.2929-1.7988-4.9141-0.52635-1.6212-0.97958-3.2256-1.3633-4.8125-0.38371-1.5869-0.69793-3.1576-0.94336-4.7109-0.24544-1.5534-0.42167-3.0888-0.53321-4.6094-0.11153-1.5206-0.15862-3.025-0.14062-4.5137s0.10097-2.9624 0.24414-4.4199c0.14317-1.4575 0.34736-2.899 0.61133-4.3262s0.58639-2.8408 0.96679-4.2383c0.38041-1.3975 0.81808-2.7797 1.3106-4.1484 0.49247-1.3687 1.0405-2.7238 1.6406-4.0644 0.60016-1.3407 1.2535-2.6671 1.957-3.9805 1.407-2.6268 3.0164-5.2002 4.8105-7.7226 1.715-2.4112 3.6228-4.764 5.709-7.0527 2.0862-2.2888 4.3496-4.5139 6.7773-6.6641 2.4277-2.1502 5.0204-4.2253 7.7598-6.2207 2.7394-1.9954 5.627-3.9098 8.6484-5.7344 3.0214-1.8246 6.1756-3.5596 9.4492-5.1973 3.2736-1.6377 6.666-3.1786 10.162-4.6133 3.4961-1.4346 7.0963-2.763 10.785-3.9785s7.4665-2.3186 11.318-3.2988z"/>
		<path d="m376.55 177.82c-4.9392-0.04-9.9685 0.0986-15.07 0.41211-5.1018 0.31352-10.277 0.80142-15.51 1.459-5.2329 0.65756-10.523 1.4844-15.855 2.4766s-10.708 2.1496-16.109 3.4668c2.9775 0.4315 5.9609 0.91697 8.9434 1.457 2.9824 0.54005 5.9636 1.1357 8.9356 1.7891 2.9719 0.65335 5.9349 1.3634 8.8809 2.1348 2.946 0.77139 5.8747 1.6039 8.7793 2.498 2.9046 0.89416 5.785 1.8494 8.6328 2.8711 2.8478 1.0217 5.6638 2.1098 8.4394 3.2637 2.7757 1.1539 5.5112 2.3751 8.1992 3.666 2.688 1.2909 5.3291 2.6514 7.9141 4.084 1.99 1.103 3.9466 2.2576 5.8652 3.4629s3.7988 2.4606 5.6367 3.7676c1.8379 1.307 3.6332 2.666 5.3809 4.0742 1.7476 1.4082 3.4477 2.8661 5.0957 4.375 1.648 1.5089 3.2443 3.0688 4.7832 4.6777 1.5389 1.609 3.021 3.2661 4.4414 4.9746s2.7779 3.4678 4.0703 5.2754c1.2924 1.8075 2.5188 3.6643 3.6738 5.5703 5.319 0.0295 10.646-0.14865 15.957-0.53125 5.3115-0.38259 10.609-0.96944 15.871-1.7578s10.489-1.779 15.66-2.9668c5.1708-1.1878 10.285-2.5733 15.322-4.1543-0.911-1.8245-1.8654-3.5999-2.8633-5.3281-0.99792-1.7282-2.04-3.4098-3.123-5.043s-2.2086-3.2184-3.375-4.7578-2.373-3.0317-3.6211-4.4785c-1.2481-1.4468-2.5373-2.8476-3.8652-4.2031-1.3279-1.3555-2.6956-2.6662-4.1016-3.9316-1.406-1.2654-2.8497-2.4856-4.332-3.6621-1.4823-1.1765-3.0017-2.3096-4.5586-3.3984-1.5569-1.0889-3.1516-2.1342-4.7812-3.1367-1.6297-1.0025-3.2954-1.9616-4.9961-2.8789-3.4014-1.8346-6.9423-3.5006-10.617-5.002s-7.4837-2.8396-11.418-4.0176c-3.9342-1.1779-7.9943-2.1962-12.174-3.0605-2.298-0.4755-4.6297-0.90117-6.9942-1.2774-2.3644-0.37617-4.7611-0.70253-7.1875-0.98046-4.8529-0.55588-9.8259-0.91644-14.9-1.0859-1.666-0.056-3.3413-0.0895-5.0293-0.10352z"/>
		<path d="m129.74 166.43c-4.81 0.036-9.5717 0.26359-14.262 0.68359-4.197 0.3765-8.3298 0.90516-12.387 1.5879-4.0569 0.68274-8.0392 1.5202-11.934 2.5137-3.8944 0.99343-7.7008 2.1426-11.41 3.4512-3.7094 1.3086-7.3204 2.776-10.822 4.4043-3.5018 1.6282-6.8942 3.4168-10.166 5.3691-3.2718 1.9524-6.424 4.0687-9.4434 6.3496-1.5097 1.1405-2.9854 2.3215-4.4277 3.5449-1.4423 1.2234-2.8505 2.4899-4.2227 3.7969-1.3722 1.307-2.7086 2.6558-4.0078 4.0469-1.2992 1.3911-2.5617 2.8231-3.7852 4.2988 4.4292 1.986 8.8898 3.8123 13.373 5.4746 4.4833 1.6623 8.9903 3.1602 13.512 4.4942 4.5214 1.3339 9.0579 2.503 13.602 3.5039 4.5437 1.0009 9.0945 1.8348 13.645 2.498 2.8025-2.848 5.748-5.5443 8.8223-8.0879 3.0743-2.5436 6.2772-4.9344 9.5898-7.1758 3.3127-2.2414 6.7362-4.332 10.254-6.2734s7.1291-3.7352 10.818-5.3789c2.9105-1.2969 5.8684-2.5084 8.8691-3.6387s6.0445-2.1782 9.123-3.1465c3.0786-0.96828 6.192-1.8571 9.3359-2.668 3.144-0.8109 6.3187-1.545 9.5156-2.2031 3.1969-0.65812 6.4168-1.24 9.6543-1.75 3.2375-0.50996 6.4922-0.94804 9.7578-1.3144s6.5428-0.66121 9.8242-0.88867c3.2814-0.22746 6.5668-0.38735 9.8516-0.48047-2.9641-1.0815-5.9491-2.099-8.9512-3.0508-3.0021-0.95182-6.0208-1.8365-9.0508-2.6562-3.03-0.81976-6.0714-1.5744-9.1191-2.2598-3.0477-0.68533-6.1029-1.303-9.1582-1.8516s-6.1112-1.0281-9.1641-1.4375-6.1024-0.7478-9.1426-1.0156c-3.0402-0.26782-6.0704-0.46398-9.0879-0.58789-3.0175-0.1239-6.0212-0.17471-9.0059-0.15234z"/>
		<path d="m257.13 150.52c-2.7923 9e-5 -5.3886 0.18325-7.7949 0.51758-2.407 0.33441-4.6257 0.82054-6.6602 1.4297s-3.885 1.3399-5.5606 2.1641c-1.6755 0.82419-3.1757 1.7411-4.5059 2.7207-1.3302 0.97956-2.4898 2.0224-3.4883 3.0977-0.99849 1.0752-1.8352 2.1836-2.5156 3.2949-0.68043 1.1113-1.2061 2.2249-1.582 3.3125-0.37596 1.0876-0.60237 2.1481-0.6875 3.1523-0.085 1.0038-0.0712 1.9839 0.0684 2.9453 0.13958 0.96141 0.40461 1.9056 0.82618 2.8359 0.42156 0.93038 0.99881 1.8472 1.7598 2.7578 0.76095 0.91066 1.7055 1.8146 2.8633 2.7168 1.1575 0.9025 2.5628 1.7821 4.2305 2.5938s3.5988 1.5565 5.8086 2.1875c2.2098 0.631 4.6986 1.1474 7.4824 1.5078 2.7838 0.36044 5.8622 0.56446 9.252 0.56446 3.0792 0 5.9034-0.1965 8.4844-0.54883 2.581-0.35233 4.9189-0.86027 7.0234-1.4863s3.9769-1.3702 5.627-2.1914c1.6501-0.8212 3.0774-1.7204 4.2949-2.6582 1.2175-0.938 2.2386-1.9023 3.0859-2.8848 0.84739-0.98243 1.5207-1.9829 2.041-2.9922s0.88874-2.0265 1.125-3.0449c0.23627-1.0184 0.34069-2.0369 0.33594-3.0469-5e-3 -1.0095-0.12944-2.0627-0.39063-3.1328s-0.65891-2.1571-1.209-3.2344-1.2534-2.1446-2.125-3.1758-1.9108-2.0274-3.1367-2.959c-1.2259-0.93163-2.6371-1.7994-4.25-2.5781-1.6129-0.77875-3.4284-1.4685-5.4609-2.041-2.0325-0.57253-4.2827-1.0289-6.7676-1.3418-2.4842-0.31287-5.2028-0.48234-8.1719-0.48242z"/>
		<path d="m376.55 177.82c1.688 0.014 3.3633 0.0475 5.0293 0.10352 2.5372 0.0847 5.049 0.21762 7.5332 0.39844 2.4842 0.18081 4.9408 0.40956 7.3672 0.6875 2.4264 0.27793 4.8231 0.60429 7.1875 0.98046 2.3644 0.37618 4.6962 0.80185 6.9942 1.2774 2.0897 0.43218 4.1504 0.90226 6.1797 1.4121 2.0292 0.50984 4.027 1.0595 5.9941 1.6484 1.9671 0.58897 3.9033 1.2172 5.8066 1.8867 1.9034 0.66949 3.7739 1.3802 5.6113 2.1309 1.8374 0.75068 3.6424 1.5435 5.4121 2.377 1.7698 0.83349 3.5044 1.7077 5.2051 2.625 1.7007 0.91731 3.3664 1.8764 4.9961 2.8789 1.6297 1.0025 3.2244 2.0478 4.7812 3.1367 1.5569 1.0889 3.0763 2.2219 4.5586 3.3984 1.4823 1.1765 2.926 2.3967 4.332 3.6621 1.406 1.2654 2.7736 2.5761 4.1016 3.9316 1.3279 1.3555 2.6172 2.7563 3.8652 4.2031 1.248 1.4468 2.4546 2.9391 3.6211 4.4785s2.2919 3.1246 3.375 4.7578 2.1251 3.3147 3.123 5.043c0.99791 1.7282 1.9523 3.5036 2.8633 5.3281-2.5188 0.79049-5.0568 1.5321-7.6113 2.2246-2.5545 0.69247-5.1256 1.3358-7.7109 1.9297-2.5854 0.59393-5.184 1.1381-7.7949 1.6328-2.6109 0.49468-5.2342 0.9398-7.8652 1.334-2.6311 0.39418-5.2719 0.73817-7.918 1.0312-2.6461 0.29308-5.2974 0.53527-7.9531 0.72656-2.6558 0.1913-5.3161 0.33125-7.9766 0.41992-2.6604 0.0887-5.321 0.12608-7.9805 0.11133-1.155-1.906-2.3814-3.7628-3.6738-5.5703-1.2924-1.8075-2.6499-3.5669-4.0703-5.2754s-2.9025-3.3656-4.4414-4.9746c-1.5389-1.609-3.1352-3.1689-4.7832-4.6777-1.648-1.5089-3.348-2.9668-5.0957-4.375-1.7477-1.4082-3.543-2.7672-5.3809-4.0742-1.8379-1.307-3.7181-2.5623-5.6367-3.7676s-3.8752-2.3599-5.8652-3.4629c-2.585-1.4326-5.226-2.7931-7.9141-4.084-2.688-1.2909-5.4236-2.5121-8.1992-3.666-2.7756-1.1539-5.5916-2.242-8.4394-3.2637-2.8478-1.0217-5.7282-1.9769-8.6328-2.8711-2.9046-0.89415-5.8333-1.7267-8.7793-2.498-2.946-0.77137-5.909-1.4814-8.8809-2.1348-2.9719-0.65335-5.9531-1.249-8.9356-1.7891-2.9824-0.54006-5.9659-1.0255-8.9434-1.457 2.7005-0.65863 5.3944-1.2774 8.0801-1.8555 2.6856-0.57803 5.363-1.1153 8.0293-1.6113s5.3217-0.95036 7.9648-1.3633c2.6432-0.41293 5.2742-0.7845 7.8906-1.1133 2.6165-0.32879 5.2191-0.61602 7.8047-0.85938 2.5856-0.24336 5.1542-0.44285 7.7051-0.59961 2.5509-0.15675 5.0833-0.26905 7.5957-0.33789 2.5124-0.0688 5.005-0.0942 7.4746-0.0742z"/>
		<path d="m416.51 132.15-2e-3 2e-3c-3.9175-0.02-7.8621 0.11944-11.828 0.41407-3.966 0.29462-7.9536 0.7442-11.955 1.3457-3.4575 0.51962-6.9225 1.1558-10.391 1.9043-3.4682 0.7485-6.9389 1.6092-10.406 2.5801-3.4674 0.97083-6.9316 2.0517-10.387 3.2383-3.4551 1.1866-6.9007 2.4792-10.332 3.875-3.4313 1.3958-6.848 2.8937-10.244 4.4922s-6.7717 3.2972-10.121 5.0918c-3.3494 1.7946-6.6736 3.6858-9.9648 5.6699s-6.5499 4.0614-9.7715 6.2285c6.0925-1.4565 12.166-2.7221 18.203-3.7871 6.0373-1.065 12.039-1.9292 17.988-2.5879 5.9494-0.65869 11.845-1.1102 17.674-1.3477 2.9143-0.11871 5.8115-0.18471 8.6894-0.19531 2.878-0.0106 5.7367 0.0334 8.5742 0.13281 2.7765 0.097 5.5336 0.24744 8.2676 0.45117 2.734 0.20374 5.4452 0.46125 8.1328 0.77344s5.351 0.6792 7.9883 1.1016c2.6373 0.42236 5.2488 0.89935 7.832 1.4336 3.9188 0.8105 7.7757 1.7604 11.561 2.8496 3.7848 1.0892 7.4979 2.3174 11.129 3.6875 3.631 1.3701 7.1794 2.8818 10.637 4.5352 3.4573 1.6534 6.8222 3.4497 10.086 5.3887 2.7532-1.655 5.4258-3.431 8.0117-5.3281 2.5859-1.8971 5.0862-3.9152 7.4922-6.0586 2.406-2.1434 4.718-4.4127 6.9316-6.8066 2.2136-2.394 4.3291-4.9138 6.3379-7.5625-2.525-1.7329-5.0906-3.358-7.6914-4.875-2.6008-1.517-5.2369-2.9264-7.9082-4.2305-2.6713-1.3041-5.3767-2.5018-8.1133-3.5957-2.7366-1.094-5.5061-2.084-8.3027-2.9707-2.7966-0.88669-5.6213-1.6693-8.4727-2.3516s-5.7281-1.2634-8.6289-1.7441c-2.9008-0.48071-5.8264-0.86255-8.7715-1.1445-2.945-0.28199-5.9105-0.46466-8.8945-0.55079-1.114-0.033-2.2316-0.0526-3.3496-0.0586z"/>
		<path d="m416.51 132.15c1.118 6e-3 2.2356 0.0256 3.3496 0.0586 2.984 0.0861 5.9495 0.2688 8.8945 0.55079 2.945 0.28198 5.8706 0.66382 8.7715 1.1445 2.9008 0.4807 5.7776 1.0619 8.6289 1.7441s5.676 1.4649 8.4727 2.3516c2.7966 0.88669 5.5661 1.8768 8.3027 2.9707 2.7366 1.094 5.4419 2.2916 8.1133 3.5957 2.6713 1.3041 5.3074 2.7134 7.9082 4.2305 2.6008 1.517 5.1664 3.1421 7.6914 4.875-2.0088 2.6488-4.1243 5.1685-6.3379 7.5625-2.2136 2.394-4.5256 4.6632-6.9316 6.8066-2.406 2.1434-4.9063 4.1615-7.4922 6.0586-2.5859 1.8971-5.2585 3.6731-8.0117 5.3281-3.2637-1.939-6.6286-3.7353-10.086-5.3887-3.4573-1.6534-7.0057-3.165-10.637-4.5352-3.631-1.3701-7.3441-2.5984-11.129-3.6875-3.7848-1.0892-7.6418-2.0391-11.561-2.8496-2.5832-0.53425-5.1947-1.0112-7.832-1.4336-2.6373-0.42236-5.3007-0.78937-7.9883-1.1016s-5.3989-0.5697-8.1328-0.77344c-2.734-0.20373-5.4911-0.35417-8.2676-0.45117-2.8375-0.0994-5.6963-0.14341-8.5742-0.13281-2.8779 0.0106-5.7752 0.0766-8.6894 0.19531-5.8286 0.23742-11.724 0.68897-17.674 1.3477-5.9494 0.65868-11.951 1.5228-17.988 2.5879-6.0373 1.065-12.111 2.3306-18.203 3.7871 3.2216-2.1671 6.4802-4.2444 9.7715-6.2285s6.6154-3.8753 9.9648-5.6699c3.3494-1.7946 6.725-3.4933 10.121-5.0918s6.8128-3.0964 10.244-4.4922c3.4313-1.3958 6.8769-2.6884 10.332-3.875 3.4551-1.1866 6.9194-2.2675 10.387-3.2383 3.4674-0.97082 6.9381-1.8316 10.406-2.5801 3.4682-0.74851 6.9331-1.3847 10.391-1.9043 4.0015-0.6015 7.9891-1.0511 11.955-1.3457 3.966-0.29463 7.9106-0.43407 11.828-0.41407z"/>
		<path d="m104.7 116.17c-2.7729 0.0222-5.548 0.13322-8.3242 0.33203s-5.5518 0.48454-8.3262 0.86133-5.5471 0.84419-8.3145 1.4004-5.53 1.2024-8.2852 1.9394-5.5025 1.5651-8.2402 2.4844-5.4664 1.9302-8.1816 3.0332-5.418 2.2978-8.1055 3.5859c-2.6875 1.2881-5.359 2.668-8.0137 4.1426 2.2857 2.4575 4.624 4.8198 7.0117 7.0859 2.3877 2.2661 4.8246 4.4368 7.3086 6.5137 2.484 2.0769 5.0153 4.0594 7.5898 5.9492 2.5745 1.8898 5.1923 3.6876 7.8516 5.3926 3.539-1.3915 7.1483-2.6489 10.816-3.7734 3.6681-1.1245 7.3959-2.1162 11.172-2.9785s7.6003-1.5963 11.463-2.2012c3.8626-0.60489 7.7634-1.0814 11.691-1.4336 5.212-0.467 10.477-0.72253 15.781-0.76953 3.22-0.028 6.4529 0.02 9.6953 0.14453 3.2424 0.12454 6.4938 0.32482 9.75 0.59961s6.518 0.62413 9.7793 1.0469c3.2613 0.42274 6.5235 0.91987 9.7812 1.4883 3.2577 0.5684 6.5104 1.2082 9.7559 1.9199 3.2454 0.71178 6.4825 1.4948 9.707 2.3477s6.4379 1.7759 9.6328 2.7676c3.1949 0.99164 6.3727 2.0516 9.5293 3.1797 0.237-0.727 0.50987-1.4413 0.79687-2.1523-3.5462-3.3469-7.1941-6.5131-10.932-9.4922s-7.5658-5.772-11.473-8.373c-3.9068-2.601-7.8933-5.0101-11.947-7.2226s-8.1744-4.2273-12.354-6.041-8.4152-3.4255-12.697-4.8301c-4.2821-1.4046-8.6116-2.6029-12.975-3.5879-2.1815-0.49251-4.3708-0.93267-6.5684-1.3184-2.1976-0.38568-4.4024-0.71657-6.6133-0.99414-2.2109-0.27756-4.4289-0.50177-6.6504-0.66992s-4.4465-0.28045-6.6758-0.33789c-1.477-0.038-2.9566-0.0491-4.4356-0.0391z"/>
		<path d="m422.81 85.48c-3.3869 0.0037-6.7993 0.07093-10.225 0.20703s-6.8644 0.34039-10.303 0.61523c-3.4384 0.27484-6.8768 0.62104-10.303 1.041s-6.8384 0.91483-10.227 1.4863c-3.3882 0.5715-6.7512 1.2198-10.076 1.9492-3.325 0.72941-6.6132 1.5399-9.8496 2.4336-3.2364 0.89372-6.4226 1.8711-9.5449 2.9355-3.1223 1.0644-6.1812 2.2155-9.1641 3.457-2.7832 1.1588-5.495 2.386-8.1309 3.6856-2.6359 1.2996-5.1946 2.6718-7.6699 4.1211s-4.8682 2.9742-7.1699 4.582-4.5139 3.297-6.6289 5.0723-4.1318 3.6382-6.0469 5.5898c-1.9151 1.9517-3.7276 3.992-5.4297 6.1289-1.7021 2.1369-3.2955 4.3702-4.7715 6.7012-1.476 2.331-2.8355 4.7609-4.0723 7.2949 1.5915 1.223 3.0617 2.5278 4.4023 3.9043 1.3406 1.3765 2.5529 2.825 3.6309 4.334 3.459-2.3148 6.9614-4.536 10.502-6.6582 3.5406-2.1222 7.1186-4.1458 10.73-6.0684 3.6118-1.9226 7.2568-3.7432 10.93-5.459 3.6729-1.7158 7.374-3.3263 11.098-4.8281s7.4703-2.8951 11.234-4.1758c3.7641-1.2807 7.5455-2.4495 11.34-3.502 3.7943-1.0525 7.6017-1.9896 11.416-2.8066s7.635-1.5134 11.459-2.0879c2.5475-0.383 5.097-0.71003 7.6465-0.98046 2.5495-0.27044 5.099-0.48488 7.6465-0.64063 2.5475-0.15575 5.0933-0.25403 7.6348-0.29297 2.5415-0.0389 5.0798-0.0195 7.6113 0.0605 2.562 0.08 5.1161 0.23155 7.6641 0.43555 1.2938-2.0175 2.5005-4.1098 3.6152-6.2793s2.1378-4.4162 3.0644-6.7441c0.92662-2.3279 1.757-4.7376 2.4863-7.2305s1.3581-5.0701 1.8809-7.7344c-5.368-0.328-10.816-0.55188-16.381-0.54688z"/>
		<path d="m116.12 67.334c-0.91-7e-3 -1.8261-0.0061-2.7461 0.0039-1.5 0.016-3.0698 0.17438-4.5938 0.23438-0.0292 2.85 0.0554 5.6189 0.25 8.3105 0.19464 2.6917 0.49839 5.3053 0.90821 7.8438 0.40981 2.5384 0.9267 5.0023 1.543 7.3926 0.61626 2.3903 1.3325 4.7078 2.1465 6.9551 2.3894 0.13312 4.7742 0.32171 7.1543 0.56445 2.3801 0.24274 4.7552 0.53961 7.123 0.89062 2.3678 0.35102 4.7294 0.75493 7.082 1.2129 2.3527 0.45796 4.6967 0.96963 7.0312 1.5332 4.6691 1.1271 9.2998 2.4643 13.879 4.0059s9.1066 3.2871 13.572 5.2324c4.4656 1.9453 8.8685 4.0913 13.197 6.4297 4.3288 2.3384 8.5836 4.8691 12.752 7.5898 4.1684 2.7208 8.2498 5.6302 12.234 8.7227s7.873 6.3688 11.65 9.8223c1.578-1.3 3.2798-2.5186 5.0898-3.6426-1.0704-2.625-2.2016-5.1824-3.3926-7.6719-1.191-2.4894-2.4416-4.9109-3.75-7.2637-1.3084-2.3528-2.6748-4.6365-4.0977-6.8516s-2.9034-4.3613-4.4375-6.4375c-1.5341-2.0762-3.1214-4.0833-4.7637-6.0195-1.6423-1.9362-3.3386-3.8005-5.0859-5.5957-1.7474-1.7952-3.5471-3.5208-5.3965-5.1738-1.8494-1.653-3.749-3.2344-5.6973-4.7441-2.4075-1.8657-4.8905-3.6262-7.4492-5.2793-2.5587-1.6531-5.1917-3.1992-7.8984-4.6348-2.7068-1.4355-5.4881-2.7596-8.3398-3.9727-2.8518-1.2131-5.7739-2.3151-8.7676-3.3008-2.9937-0.98572-6.0588-1.8559-9.1914-2.6094-3.1326-0.75347-6.3332-1.3899-9.6016-1.9062-3.2683-0.51634-6.6048-0.9132-10.006-1.1875-3.401-0.2743-6.8678-0.42575-10.398-0.45312z"/>
		<path d="m338.12 41.977c-3.3553 1.0114-6.6608 2.1452-9.9023 3.3906-3.2422 1.2457-6.4197 2.6044-9.5195 4.0703s-6.122 3.0388-9.0508 4.7109c-2.9287 1.6722-5.7651 3.4441-8.4941 5.3086-2.729 1.8645-5.3509 3.8203-7.8516 5.8633-2.5006 2.043-4.8794 4.1715-7.123 6.3789s-4.3527 4.4936-6.3106 6.8516c-1.9579 2.358-3.7647 4.7886-5.4082 7.2832-1.1262 1.7095-2.182 3.4462-3.1621 5.209s-1.8838 3.5506-2.709 5.3672c-0.8252 1.8165-1.5709 3.6604-2.2324 5.5313-0.66152 1.8708-1.2394 3.7696-1.7285 5.6953-0.48907 1.9257-0.88944 3.8783-1.1973 5.8594s-0.5228 3.9904-0.64062 6.0274c-0.11783 2.0369-0.13955 4.102-0.0586 6.1953 0.0809 2.0933 0.26424 4.215 0.55274 6.3652 2.369 0.193 4.6619 0.4985 6.875 0.90625 2.2131 0.40775 4.346 0.91749 6.3945 1.5215 1.5488-3.0748 3.2465-6.0326 5.0801-8.875 1.8335-2.8424 3.8028-5.5683 5.8965-8.1816s4.3114-5.1145 6.6406-7.502c2.3293-2.3874 4.7703-4.6614 7.3105-6.8262 2.5402-2.1647 5.1797-4.2188 7.9062-6.1641s5.5395-3.7827 8.4277-5.5117 5.8516-3.3511 8.877-4.8672c3.0254-1.516 6.1141-2.9262 9.252-4.2324 2.893-1.205 5.8317-2.3255 8.8086-3.3711 2.9769-1.0456 5.9907-2.0155 9.0332-2.918-0.13625-1.2862-0.32927-2.5898-0.58398-3.9102-0.25472-1.3203-0.57113-2.6576-0.94922-4.0117-0.3781-1.3541-0.81782-2.7256-1.3242-4.1133-0.5064-1.3877-1.0791-2.792-1.7188-4.2129-0.63963-1.4209-1.3472-2.8586-2.125-4.3125s-1.626-2.9235-2.5469-4.4102c-1.8417-2.9733-3.9745-6.0127-6.418-9.1152z"/>
		<path d="m338.12 41.977c2.4435 3.1025 4.5763 6.142 6.418 9.1152 0.92085 1.4866 1.7691 2.9562 2.5469 4.4102s1.4854 2.8916 2.125 4.3125c0.63962 1.4209 1.2124 2.8252 1.7188 4.2129 0.5064 1.3877 0.94612 2.7591 1.3242 4.1133 0.37809 1.3541 0.6945 2.6914 0.94922 4.0117 0.25471 1.3203 0.44773 2.6239 0.58398 3.9102-3.0425 0.9025-6.0563 1.8723-9.0332 2.918-2.9769 1.0456-5.9156 2.1661-8.8086 3.3711-3.1379 1.3062-6.2266 2.7164-9.252 4.2324-3.0254 1.516-5.9887 3.1381-8.877 4.8672s-5.7012 3.5664-8.4277 5.5117-5.366 3.9993-7.9062 6.1641c-2.5402 2.1648-4.9813 4.4388-7.3105 6.8262-2.3293 2.3874-4.5469 4.8886-6.6406 7.502s-4.063 5.3392-5.8965 8.1816c-1.8335 2.8424-3.5313 5.8002-5.0801 8.875-2.0485-0.604-4.1814-1.1137-6.3945-1.5215-2.2131-0.40775-4.506-0.71325-6.875-0.90625-0.2885-2.1502-0.47179-4.2719-0.55274-6.3652-0.081-2.0933-0.0592-4.1584 0.0586-6.1953 0.11782-2.0369 0.33279-4.0463 0.64062-6.0274s0.7082-3.9337 1.1973-5.8594c0.48906-1.9257 1.067-3.8245 1.7285-5.6953 0.66152-1.8709 1.4072-3.7147 2.2324-5.5313 0.82521-1.8165 1.7289-3.6044 2.709-5.3672s2.0359-3.4995 3.1621-5.209c1.6435-2.4946 3.4503-4.9252 5.4082-7.2832 1.9579-2.358 4.067-4.6441 6.3106-6.8516s4.6224-4.336 7.123-6.3789c2.5006-2.043 5.1225-3.9988 7.8516-5.8633 2.729-1.8645 5.5654-3.6364 8.4941-5.3086 2.9287-1.6722 5.951-3.2451 9.0508-4.7109s6.2774-2.8247 9.5195-4.0703c3.2416-1.2454 6.5471-2.3793 9.9023-3.3906zm84.695 43.504c5.565-5e-3 11.013 0.21888 16.381 0.54688-0.52275 2.6642-1.1516 5.2415-1.8809 7.7344s-1.5597 4.9025-2.4863 7.2305c-0.92663 2.3279-1.9497 4.5747-3.0644 6.7441s-2.3215 4.2618-3.6152 6.2793c-2.548-0.204-5.1021-0.35555-7.6641-0.43555-2.5315-0.08-5.0698-0.0995-7.6113-0.0605-2.5415 0.0389-5.0873 0.13722-7.6348 0.29297-2.5475 0.15575-5.097 0.37019-7.6465 0.64063-2.5495 0.27043-5.099 0.59746-7.6465 0.98046-3.824 0.5745-7.6447 1.2708-11.459 2.0879s-7.6217 1.7542-11.416 2.8066c-3.7943 1.0524-7.5757 2.2212-11.34 3.502-3.7641 1.2807-7.5108 2.674-11.234 4.1758s-7.4248 3.1124-11.098 4.8281c-3.6729 1.7158-7.3178 3.5364-10.93 5.459-3.6118 1.9226-7.1899 3.9461-10.73 6.0684-3.5406 2.1222-7.043 4.3434-10.502 6.6582-1.078-1.509-2.2902-2.9575-3.6309-4.334-1.3406-1.3765-2.8108-2.6813-4.4023-3.9043 1.2368-2.534 2.5963-4.9639 4.0723-7.2949 1.476-2.331 3.0694-4.5643 4.7715-6.7012 1.7021-2.1369 3.5146-4.1772 5.4297-6.1289 1.9151-1.9517 3.9319-3.8145 6.0469-5.5898s4.3272-3.4644 6.6289-5.0723 4.6946-3.1328 7.1699-4.582 5.034-2.8215 7.6699-4.1211c2.6359-1.2996 5.3476-2.5268 8.1309-3.6856 2.9829-1.2415 6.0417-2.3926 9.1641-3.457 3.1223-1.0644 6.3086-2.0418 9.5449-2.9355 3.2364-0.89372 6.5246-1.7042 9.8496-2.4336 3.325-0.72941 6.688-1.3777 10.076-1.9492 3.3882-0.5715 6.8006-1.0664 10.227-1.4863s6.8644-0.76617 10.303-1.041c3.4384-0.27484 6.8774-0.47913 10.303-0.61523s6.8377-0.20328 10.225-0.20703z"/>
		<path d="m212.83 35.623c-1.6025 1.3405-3.125 2.6874-4.5703 4.0391-1.4453 1.3517-2.8134 2.709-4.1055 4.0703-1.2921 1.3613-2.5093 2.7263-3.6524 4.0957-1.1431 1.3694-2.2128 2.7431-3.2109 4.1191-0.99813 1.376-1.924 2.7537-2.7812 4.1348-0.85727 1.381-1.6447 2.7639-2.3652 4.1484s-1.3751 2.7717-1.9629 4.1582c-0.58783 1.3865-1.1091 2.7732-1.5684 4.1602 1.83 1.133 3.6294 2.3114 5.3984 3.5371 1.769 1.2257 3.5069 2.4984 5.2109 3.8184 2.2992 1.782 4.5366 3.6474 6.7109 5.5918s4.2856 3.9692 6.332 6.0723c2.0465 2.103 4.0297 4.2832 5.9453 6.541s3.7632 4.5931 5.5449 7.002c1.7817 2.4089 3.4958 4.8912 5.1406 7.4473 1.6448 2.5561 3.2217 5.1852 4.7266 7.8848 1.5048 2.6995 2.9388 5.4694 4.3008 8.3086s2.6512 5.7477 3.8672 8.7227c0.97199-0.22 1.9638-0.40899 2.9648-0.58399-0.2765-2.6387-0.43505-5.2573-0.47656-7.8496-0.0415-2.5923 0.0341-5.1587 0.21875-7.6973 0.18468-2.5385 0.47875-5.0481 0.88086-7.5254s0.91073-4.9233 1.5215-7.332 1.3242-4.7805 2.1348-7.1133c0.8106-2.3328 1.719-4.6256 2.7207-6.875s2.0973-4.4566 3.2812-6.6152c1.184-2.1586 2.457-4.2696 3.8144-6.3301 1.524-2.314 3.1503-4.5648 4.8633-6.7578-1.43-1.7815-2.9591-3.5287-4.5801-5.2363-1.621-1.7076-3.3352-3.3763-5.1387-4.998-1.8035-1.6217-3.6964-3.1968-5.6738-4.7207s-4.0388-2.9961-6.1816-4.4102c-2.1428-1.4141-4.3663-2.7702-6.666-4.0625-2.2998-1.2923-4.6749-2.5211-7.123-3.6797-2.4481-1.1586-4.9686-2.2469-7.5566-3.2598-2.588-1.0129-5.2455-1.9494-7.9648-2.8047z"/>
	</g>
	<path d="m257.13 150.52c-1.3962 4e-5 -2.7441 0.0452-4.043 0.13281-1.2989 0.0876-2.5488 0.2176-3.752 0.38477-1.2035 0.1672-2.3608 0.37185-3.4707 0.61132-1.1099 0.23948-2.1722 0.51379-3.1894 0.81836s-1.9877 0.64011-2.9141 1.002c-0.9264 0.36185-1.8087 0.75001-2.6465 1.1621-0.83774 0.41209-1.6321 0.84802-2.3828 1.3027-0.75076 0.45471-1.458 0.92819-2.123 1.418-0.66509 0.48978-1.2882 0.99611-1.8691 1.5137-0.58098 0.51756-1.1199 1.0464-1.6191 1.584-0.49924 0.53762-0.95791 1.0844-1.377 1.6348-0.41904 0.55042-0.79846 1.1045-1.1387 1.6602-0.34022 0.55563-0.64084 1.1128-0.9043 1.666-0.26346 0.55327-0.48975 1.1027-0.67774 1.6465-0.18798 0.54379-0.33888 1.0808-0.45312 1.6074-0.11424 0.5266-0.19183 1.0428-0.23438 1.5449-0.0425 0.50188-0.061 0.9976-0.0508 1.4883 0.0103 0.49069 0.0494 0.97633 0.11914 1.457 0.0698 0.48071 0.17024 0.95718 0.30664 1.4297 0.13641 0.47251 0.30875 0.94107 0.51954 1.4062 0.21078 0.46519 0.45982 0.9274 0.75195 1.3867 0.29212 0.45932 0.62734 0.91577 1.0078 1.3711 0.38048 0.45533 0.80722 0.90875 1.2832 1.3613 0.47599 0.45259 1.0012 0.90435 1.5801 1.3555 0.57875 0.45125 1.2194 0.89592 1.9238 1.3301s1.4728 0.85783 2.3066 1.2637c0.83385 0.40585 1.7337 0.79557 2.7012 1.1621 0.96746 0.36654 2.0025 0.70989 3.1074 1.0254 1.1049 0.3155 2.279 0.60245 3.5254 0.85547s2.5651 0.47213 3.957 0.65234c1.3919 0.18022 2.8571 0.32191 4.3984 0.41797 1.5413 0.0961 3.1586 0.14649 4.8535 0.14649 1.5396 0 3.0161-0.0494 4.4297-0.14258 1.4136-0.0932 2.7642-0.23009 4.0547-0.40625 1.2905-0.17617 2.5193-0.39134 3.6895-0.64063 1.1702-0.24928 2.2817-0.53267 3.334-0.8457s2.047-0.65649 2.9844-1.0234c0.93741-0.36694 1.8175-0.75736 2.6426-1.168 0.82503-0.4106 1.5953-0.84047 2.3105-1.2852 0.71529-0.44468 1.3756-0.90417 1.9844-1.373 0.60875-0.469 1.1683-0.94464 1.6816-1.4258s0.98061-0.96777 1.4043-1.459c0.4237-0.49121 0.80329-0.98724 1.1426-1.4863 0.3393-0.49909 0.63829-1.0012 0.89844-1.5059 0.26016-0.50463 0.48324-1.0118 0.66992-1.5195s0.33695-1.0162 0.45508-1.5254c0.11812-0.50922 0.20273-1.0192 0.25781-1.5274 0.0551-0.50816 0.0806-1.0145 0.0781-1.5195-2e-3 -0.50475-0.0352-1.0197-0.0996-1.543-0.0644-0.52325-0.16042-1.0548-0.29102-1.5898-0.13059-0.53504-0.29525-1.0751-0.49609-1.6152-0.20084-0.54017-0.43786-1.0805-0.71289-1.6191-0.27504-0.53864-0.58787-1.0751-0.94141-1.6055-0.35353-0.53039-0.74777-1.0547-1.1836-1.5703-0.43582-0.51556-0.91356-1.0232-1.4356-1.5176-0.52198-0.4944-1.0882-0.97559-1.7012-1.4414-0.61295-0.46582-1.2728-0.91497-1.9805-1.3457-0.70765-0.43073-1.4631-0.84304-2.2695-1.2324-0.80643-0.38937-1.6627-0.75631-2.5723-1.0976-0.90956-0.34135-1.8724-0.6571-2.8887-0.94336-1.0162-0.28627-2.0876-0.54282-3.2148-0.76758-1.1272-0.22477-2.3103-0.41775-3.5527-0.57422-1.2421-0.15643-2.543-0.27789-3.9043-0.35938-1.3613-0.0815-2.7831-0.123-4.2676-0.12304z" fill="#FFD700"/>
</svg>
