<?xml version="1.0" encoding="utf-8"?>
<svg xmlns="http://www.w3.org/2000/svg" xmlns:cc="http://creativecommons.org/ns#" xmlns:dc="http://purl.org/dc/elements/1.1/" xmlns:rdf="http://www.w3.org/1999/02/22-rdf-syntax-ns#" height="279" version="1.1" width="282">
	<metadata>
		<rdf:RDF>
			<cc:Work rdf:about="">
				<dc:format>image/svg+xml</dc:format>
				<dc:type rdf:resource="http://purl.org/dc/dcmitype/StillImage"/>
			</cc:Work>
		</rdf:RDF>
	</metadata>
	<defs>
		<path d="m155.59 58.772c0 28.378-5.728 51.382-12.794 51.382-7.0659 0-12.794-23.005-12.794-51.382s5.728-51.382 12.794-51.382c7.0659 0 12.794 23.005 12.794 51.382z" id="petal"/>
	</defs>
	<g transform="matrix(.99937 0 0 .99937 -168.84 -402.08)">
		<g stroke="#000" stroke-width="2" transform="matrix(.98478 0 0 .98478 160.08 393.53)">
			<g fill="#fff">
				<use href="#petal" transform="matrix(.89972 -.43648 .43648 .89972 -47.024 81.744)"/>
				<use href="#petal" transform="matrix(.97929 -.20246 .20246 .97929 -20.403 32.964)"/>
				<use href="#petal" transform="matrix(.71921 -.6948 .6948 .71921 -63.592 147.82)"/>
				<use href="#petal" transform="matrix(.52949 -.84831 .84831 .52949 -53.659 199.15)"/>
				<use href="#petal" transform="matrix(.35222 -.93592 .93592 .35222 -42.015 235.87)"/>
				<use href="#petal" transform="rotate(246.74 146.1 148.01)"/>
				<use href="#petal" transform="matrix(.0033881 -.99999 .99999 .0033881 3.283 294.83)"/>
				<use href="#petal" transform="matrix(.053537 -.99857 .99857 .053537 -5.0209 278.64)"/>
				<use href="#petal" transform="matrix(-.13714 -.99055 .99055 -.13714 25.261 315.32)"/>
				<use href="#petal" transform="matrix(.74793 .66377 -.66377 .74793 16.402 73.884)"/>
				<use href="#petal" transform="matrix(.51366 .858 -.858 .51366 54.532 44.976)"/>
				<use href="#petal" transform="rotate(12.644 -689.59 68.245)"/>
				<use href="#petal" transform="matrix(.74697 .66486 -.66486 .74697 29.807 84.117)"/>
				<use href="#petal" transform="matrix(.93838 .34562 -.34562 .93838 -1.8735 122.26)"/>
				<use href="#petal" transform="matrix(.85225 -.52313 .52313 .85225 -61.032 107.16)"/>
				<use href="#petal" transform="matrix(.99626 .086367 -.086367 .99626 20.012 -7.9418)"/>
				<use href="#petal" transform="matrix(.99725 -.074155 .074155 .99725 -5.2277 13.171)"/>
				<use href="#petal" transform="matrix(.84647 .53243 -.53243 .84647 103.72 -51.351)"/>
				<use href="#petal" transform="matrix(.50002 .86602 -.86602 .50002 204.63 -55.52)"/>
				<use href="#petal" transform="matrix(.95499 .29664 -.29664 .95499 54.671 -32.76)"/>
				<use href="#petal" transform="matrix(.44907 -.8935 .8935 .44907 107.39 298.27)"/>
				<use href="#petal" transform="matrix(.18678 -.9824 .9824 .18678 151.43 293.54)"/>
				<use href="#petal" transform="matrix(-.056359 -.99841 .99841 -.056359 192.6 284.81)"/>
				<use href="#petal" transform="matrix(.23035 .97311 -.97311 .23035 255.57 -31.656)"/>
				<use href="#petal" transform="matrix(.61667 .78722 -.78722 .61667 172.76 -57.324)"/>
				<use href="#petal" transform="matrix(.38815 -.9216 .9216 .38815 122.45 294.8)"/>
				<use href="#petal" transform="matrix(.67754 -.73548 .73548 .67754 73.131 272.75)"/>
				<use href="#petal" transform="matrix(.97929 -.20246 .20246 .97929 16.646 207.39)"/>
				<use href="#petal" transform="matrix(.89382 -.44843 .44843 .89382 35.547 236.84)"/>
				<use href="#petal" transform="matrix(.99972 -.023719 .023719 .99972 4.6763 183.28)"/>
			</g>
			<path d="m200.16 155.96c0 25.984-20.972 47.049-46.842 47.049s-46.842-21.064-46.842-47.049 20.972-47.049 46.842-47.049 46.842 21.064 46.842 47.049z" fill="#fcef3c" transform="translate(-6.1906,-6.1906)"/>
		</g>
	</g>
</svg>
