<?xml version="1.0" encoding="utf-8"?>
<svg xmlns="http://www.w3.org/2000/svg" height="139" version="1.1" width="100" viewBox="0 0 100 139">
	<g stroke="#000" stroke-width=".49085" transform="matrix(1.91 0 0 1.91 257.96 -161.92)">
		<g stroke-width="1.4989" transform="matrix(.34715 0 0 .30891 -154.33 -2.9981)">
			<path d="m131.9 444.61c3.5389-14.192 6.9395-28.174 6.9395-39.48 0-23.472-7.0501-80.537-7.0501-80.537l7.3818-1.1059v-2e-5s7.1054 56.455 7.1054 81.643c0 13.023-3.6771 27.417-7.216 41.609-2.7714 11.115-5.4623 22.094-6.4971 31.767 5.8433-4.5973 11.176-10.621 9.0684-15.925 4.7217-47.736 47.82-50.509 63.948-77.302-2.7848 21.722-10.848 96.05-52.309 85.845-3.1272-1.3762-6.002-3.3697-8.7642 0.0553-3.5184 5.2886-7.4827 10.805-12.134 13.274-0.0499 1.0288-0.25242 0.77655-0.25242 1.7661 0 9.4711 1.1524 20.405 2.5272 31.735l-7.4776-1.1892c-1.0641-10.161-2.0376-20.334-2.4867-30.545 0-6.5114 1.9121-18.626 3.2322-25.872-5.9689-4.389-7.0764-7.2756-10.595-12.564-2.7622-3.425-5.637-1.4316-8.7642-0.0553-41.461 10.205-49.524-64.123-52.309-85.845 16.128 26.793 59.369 29.885 64.09 77.621-2.1078 5.3043 3.2251 11.328 9.0046 15.845 0.77866-3.629 1.672-7.1896 2.5567-10.738z" fill="#5ab532" fill-rule="evenodd"/>
			<path d="m145.45 469.94c0.77674-9.527 10.282-15.287 20.022-24.57 12.403-11.821 27.343-26.659 35.522-49.268" fill="none"/>
			<path d="m145.45 469.94c0.77674-9.527 10.282-15.287 20.022-24.57 12.403-11.821 27.343-26.659 35.522-49.268" fill="none" transform="matrix(-1,0,0,1,261.82,-23.397)"/>
		</g>
		<g transform="matrix(.068882 0 0 .068882 -50.037 102.02)">
			<circle cx="-365.87" cy="-101.11" fill="#ff0" r="38.889" stroke-width="3.7833" transform="matrix(1.9967,0,0,1.7768,-71.318,202.51)"/>
			<g fill="#f60" fill-rule="evenodd" stroke-width="5.3465" transform="matrix(1.4129,0,0,1.2573,326.72,-167.76)">
				<path d="m-812.92 203.93 18.791 2.0272c-1.6962 31.425 0.28401 53.84 2.7785 77.755 1.9109 18.32 8.1954 45.951-0.63353 58.174-3.4909 4.8327-11.203 21.332-17.279 21.373-4.571 0.0305-4.5569 3.7999-11.307 2.7733-6.7786-0.81442-6.1423-3.6949-10.539-4.9458-5.8443-1.6628-10.262-18.728-12.334-24.318-5.2416-14.137 3.5154-40.074 10.252-57.217 8.7945-22.379 15.72-43.071 20.271-75.621z"/>
				<path d="m-796.57 205.65 18.523-3.7575c7.8982 30.463 16.572 51.227 26.191 73.264 7.3681 16.882 21.724 41.313 17.01 55.635-1.8638 5.6628-4.218 23.723-9.9967 25.602-4.3472 1.4131-3.1925 5.0013-9.9362 6.0665-6.707 1.2762-6.9727-1.6617-11.542-1.5227-6.0734 0.18483-15.451-14.742-19.118-19.442-9.2761-11.887-8.7833-39.257-7.5532-57.636 1.6058-23.991 1.9408-45.809-3.5776-78.209z"/>
				<path d="m-779.45 201.94 16.324-9.5254c17.293 26.294 32.194 43.155 48.4 60.917 12.415 13.607 33.877 32.11 34.029 47.187 0.0603 5.9614 3.6508 23.817-1.2144 27.457-3.6601 2.7384-1.4107 5.7632-7.4515 8.9445-5.938 3.3692-7.1362 0.6736-11.417 2.2774-5.69 2.1319-19.377-8.9774-24.363-12.245-12.611-8.264-20.964-34.334-25.721-52.128-6.21-23.229-12.923-43.991-28.587-72.885z"/>
				<path d="m-764.86 193.28 12.534-14.146c24.638 19.579 44.06 30.944 65.002 42.758 16.043 9.0502 42.209 19.926 47.062 34.202 1.9187 5.6444 10.905 21.486 7.42 26.463-2.622 3.7444 0.45939 5.9155-4.286 10.824-4.5891 5.0549-6.5691 2.8682-10.135 5.7285-4.7398 3.802-21.211-2.478-26.968-4.0251-14.561-3.9128-30.637-26.071-40.712-41.49-13.153-20.128-26.013-37.756-49.916-60.314z"/>
				<path d="m-753.41 180.02 7.3092-17.43c29.631 10.6 51.679 15.104 75.31 19.543 18.103 3.4006 46.378 5.2689 55.57 17.221 3.6345 4.7256 17.245 16.829 15.548 22.663-1.2762 4.3894 2.3403 5.4523-0.5712 11.628-2.7164 6.2637-5.2952 4.8312-7.7496 8.6876-3.2626 5.1261-20.879 4.486-26.828 4.8758-15.046 0.98585-37.401-14.814-51.906-26.166-18.935-14.819-36.788-27.365-66.683-41.023z"/>
				<path d="m-746.96 164.28 1.4842-18.842c31.46 0.78872 53.809-1.8374 77.642-5.0209 18.257-2.4387 45.696-9.5179 58.168-1.0454 4.9314 3.35 21.647 10.583 21.863 16.655 0.16237 4.5682 3.9298 4.4454 3.0984 11.222-0.61848 6.7992-3.5161 6.2463-4.6396 10.677-1.4934 5.8899-18.424 10.798-23.952 13.031-13.98 5.6473-40.159-2.3576-57.489-8.5971-22.623-8.1451-43.507-14.47-76.175-18.08z"/>
				<path d="m-745.87 146-4.9377-18.244c29.894-9.8356 50.058-19.824 71.433-30.835 16.374-8.4356 39.835-24.329 54.43-20.543 5.7707 1.4967 23.945 2.6879 26.19 8.3342 1.689 4.2477 5.1957 2.8651 6.6913 9.5266 1.7037 6.6113-1.2111 7.0649-0.77932 11.616 0.57397 6.0491-13.721 16.364-18.176 20.326-11.267 10.019-38.613 11.283-57.033 11.234-24.045-0.0639-45.839 1.0011-77.819 8.586z"/>
				<path d="m-750.71 129.11-10.564-15.672c25.117-18.961 40.976-34.925 57.651-52.249 12.773-13.271 29.846-35.888 44.881-37.017 5.9449-0.44671 23.53-5.1875 27.478-0.56856 2.97 3.4748 5.8425 1.0341 9.4089 6.8558 3.7472 5.7071 1.1349 7.0775 3.0129 11.245 2.4964 5.5398-7.702 19.918-10.639 25.106-7.4288 13.121-32.902 23.146-50.351 29.047-22.777 7.7031-43.061 15.748-70.878 33.253z"/>
				<path d="m-761.26 114.13-15.221-11.204c17.272-26.307 26.835-46.677 36.707-68.601 7.563-16.795 16.029-43.838 29.808-49.961 5.4479-2.4211 20.412-12.803 25.684-9.7818 3.9661 2.2728 5.8498-0.99225 11.167 3.29 5.4491 4.1134 3.4503 6.2829 6.6212 9.5755 4.2149 4.3767-0.55052 21.348-1.5708 27.222-2.5805 14.855-23.195 32.868-37.64 44.296-18.857 14.918-35.25 29.32-55.555 55.164z"/>
				<path d="m-775.93 103.72-18.068-5.545c7.6096-30.536 9.9051-52.922 11.979-76.877 1.5889-18.351 0.64443-46.672 11.626-57.004 4.342-4.0852 15.036-18.828 21.01-17.719 4.4943 0.83469 5.1934-2.8693 11.627-0.58454 6.5021 2.0819 5.3325 4.79 9.4132 6.85 5.4243 2.7382 6.534 20.331 7.5118 26.212 2.4728 14.874-11.032 38.686-20.89 54.245-12.869 20.311-23.583 39.32-34.209 70.422z"/>
				<path d="m-791.2 99.011-18.9 0.02448c-1.7249-31.423-6.1266-53.491-11.202-76.994-3.8882-18.004-13.135-44.79-5.6849-57.899 2.9457-5.1831 8.8212-22.422 14.857-23.122 4.5407-0.52648 4.1175-4.2721 10.939-3.9842 6.8269 0.07381 6.507 3.0064 11.014 3.7726 5.9903 1.0186 12.234 17.504 14.901 22.835 6.7452 13.485 0.85537 40.219-3.981 57.992-6.3134 23.201-10.952 44.523-11.942 77.375z"/>
				<path d="m-809.21 99.351-17.827 6.2764c-12.024-29.083-23.48-48.451-36.046-68.951-9.6262-15.704-27.214-37.922-24.521-52.757 1.0649-5.8658 0.9056-24.078 6.3699-26.736 4.1108-1.9992 2.4721-5.3938 9.0044-7.379 6.4668-2.1891 7.1352 0.6841 11.641-0.08383 5.9899-1.0208 17.336 12.47 21.617 16.619 10.827 10.494 14.114 37.671 15.431 56.043 1.7186 23.983 4.3962 45.639 14.331 76.968z"/>
				<path d="m-825.68 105.4-14.848 11.694c-20.767-23.646-37.86-38.282-56.369-53.629-14.179-11.757-37.996-27.11-40.235-42.021-0.88511-5.8956-6.9134-23.082-2.599-27.361 3.2457-3.2188 0.59917-5.903 6.1413-9.8901 5.4144-4.159 6.9742-1.6552 10.991-3.8363 5.34-2.8992 20.433 6.208 25.824 8.7536 13.634 6.4382 25.516 31.1 32.691 48.065 9.3664 22.145 18.889 41.778 38.403 68.225z"/>
				<path d="m-839.82 117-10.059 16.001c-27.501-15.299-48.517-23.344-71.105-31.584-17.304-6.3126-44.894-12.775-52.01-26.068-2.8136-5.2559-14.263-19.42-11.637-24.899 1.9762-4.1219-1.418-5.7614 2.4632-11.378 3.7032-5.7357 6.0134-3.9012 9.0648-7.3047 4.0562-4.5242 21.331-1.0145 27.264-0.42714 15.004 1.4855 34.478 20.725 46.934 34.295 16.259 17.714 31.823 33.008 59.085 51.366z"/>
				<path d="m-848.96 131.98-4.357 18.391c-30.967-5.6056-53.454-6.4389-77.494-6.9492-18.415-0.3909-46.615 2.3953-57.64-7.8902-4.3592-4.0668-19.767-13.778-19.049-19.812 0.5404-4.5391-3.2013-4.9956-1.3402-11.564 1.6542-6.6239 4.4327-5.633 6.2226-9.8391 2.3793-5.5911 19.863-7.8438 25.668-9.2023 14.681-3.4358 39.322 8.4902 55.49 17.314 21.106 11.519 40.772 20.973 72.499 29.552z"/>
				<path d="m-852.81 149.69 2.0132 18.793c-31.067 5.022-52.549 11.721-75.388 19.242-17.495 5.7612-43.159 17.775-56.979 11.746-5.4643-2.3839-23.226-6.4127-24.557-12.341-1.0013-4.4601-4.6816-3.6451-5.1131-10.459-0.645-6.7968 2.3049-6.7873 2.5927-11.349 0.3825-6.0642 16.119-14.008 21.141-17.221 12.7-8.1268 39.906-5.0828 58.089-2.1436 23.737 3.8369 45.428 6.2056 78.202 3.7338z"/>
				<path d="m-850.61 167.44 8.0798 17.086c-27.689 14.957-45.774 28.347-64.87 42.958-14.629 11.193-34.916 30.977-49.95 29.826-5.9443-0.45485-24.043 1.58-27.25-3.5815-2.4121-3.8829-5.6198-1.9032-8.2675-8.1962-2.8437-6.2069-0.0547-7.1678-1.2828-11.571-1.6325-5.8529 10.618-18.529 14.304-23.214 9.3224-11.85 36.016-17.92 54.155-21.123 23.678-4.1804 44.943-9.0749 75.082-22.184z"/>
				<path d="m-842.48 183.79 13.341 13.387c-21.07 23.376-33.619 42.055-46.71 62.223-10.028 15.45-22.507 40.891-37.057 44.849-5.7526 1.5647-22.122 9.5507-26.873 5.7632-3.5744-2.8493-5.9326 0.0914-10.537-4.9495-4.7604-4.894-2.455-6.7344-5.0885-10.471-3.5005-4.9666 3.7897-21.016 5.6911-26.667 4.809-14.29 27.922-28.96 43.937-38.059 20.906-11.878 39.298-23.62 63.296-46.076z"/>
				<path d="m-829.71 196.2 16.989 8.2826c-12.258 28.985-18 50.743-23.768 74.085-4.4183 17.882-7.8816 46.006-20.334 54.508-4.9235 3.3616-17.776 16.266-23.506 14.243-4.3102-1.5222-5.5759 2.0284-11.577-1.2274-6.1002-3.066-4.5243-5.5597-8.2357-8.2282-4.9335-3.547-3.2988-21.099-3.3518-27.06-0.13396-15.077 16.904-36.504 29.057-50.345 15.866-18.067 29.401-35.183 44.726-64.258z"/>
			</g>
		</g>
	</g>
</svg>
