<?xml version="1.0" encoding="utf-8"?>
<svg xmlns="http://www.w3.org/2000/svg" xmlns:xlink="http://www.w3.org/1999/xlink" height="106.813" version="1.0" width="107.1">
	<path d="M53.284 1.003c-1.67-.07-1.566.829-2.678.955-1.477.167-2.915 4.298-3.636 5.54-1.824 3.143.44 9.564 1.392 13.88 1.227 5.564 2.292 10.8 2.725 18.187l4.662-.16c.27-7.628 1.387-12.667 2.904-18.125 1.184-4.26 2.626-10.668.975-13.9-.653-1.278-2.18-5.229-3.647-5.473-1.103-.184-1.026-.887-2.697-.904z" id="a" style="fill:#fff;fill-opacity:1;stroke:#000;stroke-width:1.99999988;stroke-miterlimit:4;stroke-dasharray:none;stroke-opacity:1"/>
	<use height="100%" transform="rotate(18.947 53.524 53.716)" width="100%" xlink:href="#a"/>
	<use height="100%" transform="rotate(37.894 53.524 53.716)" width="100%" xlink:href="#a"/>
	<use height="100%" transform="rotate(56.841 53.524 53.716)" width="100%" xlink:href="#a"/>
	<use height="100%" transform="rotate(75.788 53.524 53.716)" width="100%" xlink:href="#a"/>
	<use height="100%" transform="rotate(94.735 53.524 53.716)" width="100%" xlink:href="#a"/>
	<use height="100%" transform="rotate(113.682 53.524 53.716)" width="100%" xlink:href="#a"/>
	<use height="100%" transform="rotate(132.629 53.524 53.716)" width="100%" xlink:href="#a"/>
	<use height="100%" transform="rotate(151.576 53.524 53.716)" width="100%" xlink:href="#a"/>
	<use height="100%" transform="rotate(170.523 53.524 53.716)" width="100%" xlink:href="#a"/>
	<use height="100%" transform="rotate(-170.53 53.524 53.716)" width="100%" xlink:href="#a"/>
	<use height="100%" transform="rotate(-151.583 53.524 53.716)" width="100%" xlink:href="#a"/>
	<use height="100%" transform="rotate(-132.636 53.524 53.716)" width="100%" xlink:href="#a"/>
	<use height="100%" transform="rotate(-113.689 53.524 53.716)" width="100%" xlink:href="#a"/>
	<use height="100%" transform="rotate(-94.742 53.524 53.716)" width="100%" xlink:href="#a"/>
	<use height="100%" transform="rotate(-75.795 53.524 53.716)" width="100%" xlink:href="#a"/>
	<use height="100%" transform="rotate(-56.848 53.524 53.716)" width="100%" xlink:href="#a"/>
	<use height="100%" transform="rotate(-37.901 53.524 53.716)" width="100%" xlink:href="#a"/>
	<use height="100%" transform="rotate(-18.954 53.524 53.716)" width="100%" xlink:href="#a"/>
	<ellipse cx="53.55" cy="53.407" rx="15.119" ry="14.806" style="fill:#fcef3c;fill-opacity:1;stroke:#000;stroke-width:1.99999988;stroke-miterlimit:4;stroke-dasharray:none;stroke-opacity:1"/>
</svg>
