<?xml version="1.0" encoding="utf-8"?>
<svg xmlns="http://www.w3.org/2000/svg" xmlns:cc="http://creativecommons.org/ns#" xmlns:dc="http://purl.org/dc/elements/1.1/" xmlns:inkscape="http://www.inkscape.org/namespaces/inkscape" xmlns:rdf="http://www.w3.org/1999/02/22-rdf-syntax-ns#" xmlns:sodipodi="http://sodipodi.sourceforge.net/DTD/sodipodi-0.dtd" xmlns:svg="http://www.w3.org/2000/svg" height="282" id="svg31" version="1.1" width="282" sodipodi:docname="marigold-icon.svg" inkscape:version="1.3 (0e150ed, 2023-07-21)">
	<defs id="defs31"/>
	<sodipodi:namedview bordercolor="#666666" borderopacity="1.0" id="namedview31" pagecolor="#ffffff" inkscape:current-layer="svg31" inkscape:cx="141.59746" inkscape:cy="141.59746" inkscape:deskcolor="#d1d1d1" inkscape:pagecheckerboard="0" inkscape:pageopacity="0.0" inkscape:showpageshadow="2" inkscape:window-height="480" inkscape:window-maximized="0" inkscape:window-width="1320" inkscape:window-x="0" inkscape:window-y="25" inkscape:zoom="0.83687943"/>
	<metadata id="metadata1">
		<rdf:RDF>
			<cc:Work rdf:about="">
				<dc:format>image/svg+xml</dc:format>
				<dc:type rdf:resource="http://purl.org/dc/dcmitype/StillImage"/>
			</cc:Work>
		</rdf:RDF>
	</metadata>
	<g fill="#f94d00" id="g30" stroke="#000" stroke-width="2">
		<path d="m107.89 56.864c12.189 25.125 16.998 47.953 10.742 50.988-6.2561 3.0349-21.209-14.873-33.397-39.997-12.188-25.124-16.998-47.953-10.742-50.988 6.256-3.0349 21.209 14.873 33.397 39.997z" id="path1"/>
		<path d="m132.73 49.294c5.6539 27.347 4.717 50.658-2.0923 52.065-6.8093 1.4078-16.913-19.62-22.566-46.966-5.6537-27.346-4.717-50.658 2.0923-52.065 6.8093-1.4077 16.913 19.62 22.566 46.966z" id="path2"/>
		<path d="m78.885 71.895c19.403 20.084 31.077 40.281 26.076 45.113-5.0009 4.8312-24.784-7.5341-44.186-27.618-19.402-20.084-31.077-40.281-26.076-45.113 5.0009-4.8312 24.784 7.5342 44.186 27.618z" id="path3"/>
		<path d="m68.49 87.931c23.689 14.786 39.908 31.554 36.226 37.453-3.6817 5.8986-25.87-1.3065-49.56-16.092-23.689-14.786-39.908-31.554-36.226-37.453 3.6817-5.8986 25.87 1.3065 49.56 16.092z" id="path4"/>
		<path d="m57.874 100.4c26.136 9.836 45.337 23.085 42.888 29.592-2.4491 6.5077-25.622 3.8096-51.758-6.0261-26.135-9.8356-45.337-23.085-42.888-29.592 2.4491-6.5078 25.622-3.8096 51.758 6.0261z" id="path5"/>
		<path d="m50.567 162.96c25.656-11.028 48.68-14.789 51.426-8.4008 2.7458 6.3882-15.826 20.507-41.481 31.534-25.655 11.027-48.68 14.789-51.426 8.4008-2.7459-6.3882 15.826-20.507 41.481-31.534z" id="path6"/>
		<path d="m52.745 128.43c27.925 0.0946 50.544 5.808 50.52 12.761-0.0236 6.9533-22.681 12.513-50.606 12.419-27.924-0.0946-50.544-5.808-50.52-12.761 0.023558-6.9532 22.681-12.513 50.606-12.419z" id="path7"/>
		<path d="m52.17 115.62c27.885 1.495 50.189 8.3357 49.817 15.279-0.37226 6.9434-23.28 11.36-51.165 9.8651-27.885-1.495-50.189-8.3357-49.817-15.279 0.37225-6.9434 23.28-11.36 51.165-9.8651z" id="path8"/>
		<path d="m52.311 141.91c27.662-3.8297 50.859-1.3508 51.812 5.5369 0.95358 6.8876-20.698 15.576-48.359 19.405-27.661 3.8296-50.859 1.3508-51.812-5.5369-0.95357-6.8876 20.698-15.576 48.359-19.405z" id="path9"/>
		<path d="m83.428 208.81c-18.536 20.886-37.778 34.076-42.978 29.46-5.2006-4.6153 5.6102-25.289 24.146-46.174 18.535-20.886 37.778-34.076 42.978-29.46 5.2006 4.6154-5.6102 25.289-24.145 46.174z" id="path10"/>
		<path d="m73.848 196.55c-23.96 14.344-46.278 21.136-49.851 15.17-3.5716-5.966 12.957-22.43 36.916-36.774 23.959-14.344 46.278-21.136 49.851-15.17 3.5716 5.966-12.957 22.43-36.916 36.774z" id="path11"/>
		<path d="m126.14 231.33c-6.1128 27.248-16.568 48.104-23.352 46.581-6.7847-1.522-7.3294-24.845-1.2169-52.093 6.1125-27.247 16.568-48.104 23.352-46.581 6.7847 1.522 7.3294 24.845 1.2169 52.093z" id="path12"/>
		<path d="m96.409 218.99c-18.567 20.859-37.827 34.021-43.021 29.398-5.1939-4.623 5.647-25.281 24.213-46.139 18.566-20.859 37.827-34.021 43.021-29.398 5.1939 4.623-5.6469 25.281-24.213 46.139z" id="path13"/>
		<path d="m113 218.71c-9.6517 26.205-22.765 45.499-29.29 43.096-6.5249-2.4032-3.99-25.594 5.6614-51.799 9.6513-26.204 22.765-45.499 29.29-43.096 6.5249 2.4032 3.99 25.594-5.6614 51.799z" id="path14"/>
		<path d="m91.845 65.862c14.609 23.799 21.647 46.041 15.721 49.679-5.926 3.6374-22.572-12.707-37.181-36.506-14.608-23.799-21.647-46.041-15.721-49.679 5.926-3.6374 22.572 12.707 37.181 36.506z" id="path15"/>
		<path d="m158.39 54.244c-2.4118 27.821-9.9826 49.888-16.91 49.287-6.9273-0.60054-10.588-23.641-8.1761-51.462 2.4118-27.82 9.9826-49.888 16.91-49.287 6.9273 0.60054 10.588 23.641 8.1761 51.462z" id="path16"/>
		<path d="m142.99 50.5c2.0708 27.849-1.8717 50.843-8.806 51.358-6.9342 0.51562-14.234-21.642-16.305-49.491-2.0707-27.848 1.8717-50.843 8.806-51.358 6.9342-0.51563 14.234 21.642 16.305 49.491z" id="path17"/>
		<path d="m192.04 71.16c-14.868 23.638-31.692 39.799-37.578 36.096-5.8858-3.7021 1.3962-25.866 16.264-49.504 14.868-23.637 31.692-39.799 37.578-36.096 5.8858 3.7021-1.3962 25.866-16.264 49.504z" id="path18"/>
		<path d="m219 98.096c-24.184 13.963-46.607 20.401-50.084 14.379-3.4768-6.0217 13.31-22.223 37.493-36.185 24.183-13.963 46.607-20.401 50.084-14.379 3.4767 6.0217-13.31 22.223-37.493 36.185z" id="path19"/>
		<path d="m174.02 59.629c-8.2839 26.669-20.382 46.615-27.022 44.552-6.6403-2.0626-5.308-25.354 2.9756-52.022 8.2836-26.668 20.382-46.615 27.022-44.552 6.6403 2.0626 5.308 25.354-2.9756 52.022z" id="path20"/>
		<path d="m217.27 173.9c24.951 12.54 42.646 27.742 39.524 33.955-3.1225 6.2128-25.881 1.083-50.832-11.457-24.95-12.54-42.646-27.742-39.524-33.955 3.1225-6.2128 25.881-1.083 50.832 11.457z" id="path21"/>
		<path d="m225.59 140.46c27.434 5.216 48.621 14.982 47.322 21.812-1.2987 6.8309-24.591 8.1401-52.025 2.9243-27.433-5.2158-48.621-14.982-47.322-21.812 1.2987-6.8309 24.591-8.1401 52.025-2.9243z" id="path22"/>
		<path d="m229.8 115.36c27.881-1.5738 50.801 2.778 51.193 9.7204 0.39188 6.9423-21.893 13.846-49.774 15.42-27.88 1.574-50.801-2.778-51.193-9.7204-0.39188-6.9423 21.893-13.846 49.774-15.42z" id="path23"/>
		<path d="m221.64 122.38c-27.175 6.4327-50.502 6.1621-52.104-0.60434-1.6017-6.7663 19.129-17.466 46.303-23.899 27.174-6.4325 50.502-6.1621 52.104 0.60434 1.6017 6.7663-19.129 17.466-46.303 23.899z" id="path24"/>
		<path d="m210.05 91.003c-21.983 17.221-43.28 26.743-47.569 21.269-4.2878-5.4738 10.057-23.871 32.04-41.091s43.28-26.743 47.568-21.269c4.2878 5.4738-10.057 23.871-32.04 41.091z" id="path25"/>
		<path d="m224.39 162.66c25.736 10.839 44.411 24.821 41.712 31.229-2.6989 6.4082-25.75 2.8159-51.486-8.023-25.735-10.839-44.411-24.821-41.712-31.229 2.6989-6.4082 25.75-2.8159 51.486 8.023z" id="path26"/>
		<path d="m209.4 186.19c20.539 18.921 33.369 38.404 28.658 43.518-4.7112 5.1141-25.18-6.0787-45.718-24.998-20.538-18.92-33.369-38.404-28.658-43.518 4.7112-5.114 25.18 6.0787 45.718 24.998z" id="path27"/>
		<path d="m169.19 220.94c5.6539 27.347 4.717 50.658-2.0923 52.065-6.8093 1.4077-16.913-19.62-22.566-46.966-5.6537-27.346-4.717-50.658 2.0923-52.065 6.8093-1.4078 16.913 19.62 22.566 46.966z" id="path28"/>
		<path d="m188.93 207.31c12.523 24.96 17.636 47.722 11.421 50.841-6.215 3.118-21.405-14.589-33.927-39.548-12.522-24.959-17.636-47.722-11.421-50.841 6.215-3.118 21.405 14.589 33.927 39.548z" id="path29"/>
		<path d="m150.2 225.76c0.66236 27.918-4.4358 50.683-11.387 50.848-6.9514 0.16492-13.123-22.333-13.786-50.251-0.66235-27.917 4.4358-50.683 11.387-50.848 6.9514-0.16493 13.123 22.333 13.786 50.251z" id="path30"/>
	</g>
	<path d="m182.04 138.6c0 25.57-20.638 46.299-46.095 46.299-25.457 0-46.095-20.728-46.095-46.299s20.638-46.299 46.095-46.299c25.457 0 46.095 20.728 46.095 46.299z" fill="#ffd700" id="path31" stroke="#000" stroke-width="2"/>
	<circle cx="141" cy="141" fill="#ffd700" id="circle31" r="47" stroke="#000000" stroke-width="2"/>
</svg>
