<?xml version="1.0" encoding="UTF-8"?>
<svg viewBox="0 0 512 512" xmlns="http://www.w3.org/2000/svg">
	<title>Marigold icon outline.</title>
	<path d="m0 0v512h512v-512h-512zm212.83 35.623c21.755 6.842 39.445 18.92 50.885 33.172-1.713 2.193-3.3393 4.4438-4.8633 6.7578-10.86 16.484-16.308 36.228-14.096 57.338-1.001 0.175-1.9928 0.36399-2.9648 0.58399-9.728-23.8-24.174-43.314-42.568-57.57-3.408-2.64-6.9494-5.0895-10.609-7.3555 3.674-11.096 11.397-22.202 24.217-32.926zm125.29 6.3535c9.774 12.41 14.576 23.796 15.666 34.086-6.085 1.805-12.056 3.8791-17.842 6.2891-25.103 10.45-47.001 27.562-59.391 52.16-4.097-1.208-8.5315-2.0417-13.27-2.4277-2.308-17.202 2.1658-32.574 11.176-46.25 13.148-19.957 36.814-35.765 63.66-43.857zm-221.99 25.357c28.245 0.219 52.392 8.4178 71.652 23.344 15.586 12.078 28.058 28.758 36.621 49.758-1.81 1.124-3.5118 2.3426-5.0898 3.6426-30.219-27.628-67.446-43.874-105.68-46.004-3.256-8.989-4.9647-19.102-4.8477-30.502 1.524-0.06 3.0938-0.21838 4.5938-0.23438 0.92-0.01 1.8361-0.010907 2.7461-0.003907zm306.69 18.146c5.565-5e-3 11.013 0.21888 16.381 0.54688-2.091 10.657-5.8719 19.918-11.047 27.988-2.548-0.20399-5.1021-0.35554-7.6641-0.43554-10.126-0.32-20.349 0.32152-30.539 1.8535-30.592 4.596-61.037 17.068-88.709 35.586-2.156-3.018-4.8502-5.7923-8.0332-8.2383 9.894-20.272 27.654-33.906 49.92-43.176 23.863-9.932 52.596-14.095 79.691-14.125zm-318.11 30.688h0.00195c1.479-0.01 2.9586 0.00106 4.4356 0.03906 35.669 0.919 70.515 16.092 98.885 42.867-0.287 0.711-0.55987 1.4253-0.79687 2.1523-25.253-9.025-51.871-13.718-77.631-13.494-5.304 0.047-10.569 0.30253-15.781 0.76953-15.712 1.409-30.987 4.8207-45.143 10.387-10.637-6.82-20.619-15.111-29.762-24.941 21.237-11.797 43.608-17.601 65.791-17.779zm311.81 15.982c1.118 6e-3 2.2356 0.02559 3.3496 0.05859 23.872 0.689 46.583 7.5999 66.783 21.463-8.035 10.595-17.76 19.136-28.773 25.756-13.055-7.756-27.737-13.219-43.412-16.461-10.333-2.137-21.115-3.3718-32.221-3.7598-22.7-0.795-46.759 1.9592-71.129 7.7852 25.773-17.337 53.957-28.923 81.617-33.08 8.003-1.203 15.948-1.7998 23.783-1.7598l0.00195-0.00195zm-159.38 18.367h0.00195c23.757 6.5e-4 31.472 10.87 31.512 18.945 0.019 4.04-1.7179 8.2168-6.5879 11.969-4.87 3.751-13.113 6.8848-25.43 6.8848-13.559 0-22.143-3.2435-26.773-6.8535-4.631-3.609-5.8576-7.2409-5.5176-11.256 0.68098-8.0337 10.451-19.689 32.795-19.689zm-127.38 15.914c23.877-0.179 48.967 4.3597 72.68 13.012-26.278 0.745-52.648 5.7148-75.932 16.09-14.757 6.575-28.274 15.524-39.484 26.916-18.2-2.653-36.414-8.0267-54.131-15.971 19.575-23.612 49.03-36.351 82.605-39.363 4.69-0.42 9.4517-0.64759 14.262-0.68359zm246.81 11.389c1.688 0.014 3.3633 0.04752 5.0293 0.10352 10.149 0.339 19.89 1.4418 29.082 3.3438 33.436 6.915 59.25 23.706 73.826 52.898-20.15 6.324-41.535 9.5282-62.811 9.4102-9.24-15.248-23.027-27.354-38.947-36.178-20.68-11.461-44.905-18.312-68.725-21.764 21.604-5.269 42.788-7.9745 62.545-7.8145zm-169.43 20.268h0.00195c0.31734-0.00395 0.63192 2e-3 0.94727 0-21.82 9.581-40.243 23.24-52.445 40.396-7.27 10.222-12.02 21.8-13.725 34.168-20.74 4.535-43.106 5.6751-64.572 3.9121 7.898-31.35 28.812-51.502 56.768-63.959 21.636-9.6408 47.376-14.211 73.025-14.518zm91.439 4.6523c26.12 2.492 53.681 9.1309 75.109 21.006 26.436 14.652 43.502 35.227 41.416 68.23-21.036-0.592-44.261-3.938-65.217-10.666 0.084-10.034-2.186-19.906-6.25-29.096-8.68-19.621-25.019-36.663-45.059-49.475zm-33.76 3.7637c28.006 11.318 52.225 31.79 61.725 53.27 5.067 11.453 6.2528 22.861 2.5898 34.398-3.309 10.418-11.13 21.287-24.875 31.947-22.897-12.077-41.927-33.207-50.207-55.633-8.263-22.375-6.6224-44.889 10.768-63.982zm-23.336 0.05273c-13.025 21.991-13.376 47.617-4.9629 70.402 0.536 1.452 1.1148 2.8912 1.7148 4.3242-15.387 17.572-39.818 31.864-65.99 39.891-18.249-28.259-15.724-51.677-1.3711-71.857 13.72-19.29 39.794-34.918 70.609-42.76zm17.875 107.93c9.0386 10.15 19.799 18.975 31.705 25.852 0.786 22.178-2.5007 44.39-9.4707 66.148-5.979 4.974-11.561 10.809-16.494 17.744-7.511 10.56-13.396 23.517-17.184 39.434-3.862-11.087-8.5396-20.44-13.932-28.287 20.808-39.932 31.068-82.143 25.375-120.89zm-72.496 25.488c11.242 12.333 24.526 20.676 37.596 27.574 4.289 2.262 8.5343 4.376 12.738 6.459-3.642 15.225-9.2732 30.68-16.619 45.955-11.272-10.226-24.042-16.282-36.52-20.285-5.81-1.862-11.575-3.3291-17.189-4.6211 4.16-16.933 11.557-35.539 19.994-55.082zm167.01 0.88672c1.5 11.18 2.5941 21.898 2.8301 32.031-13.198 4.564-28.398 8.67-43.484 15-2.778 1.166-5.5544 2.4254-8.3184 3.7754 1.826-8.273 3.167-16.603 4-24.961 14.97-6.557 30.405-14.01 44.973-25.846zm42.967 32.416c4.834 30.772 2.7057 59.344-12.447 80.469-17.297 24.117-53.288 41.251-122.09 40.941 1.77-27.742 8.6193-46.391 18.029-59.623 10.464-14.712 24.386-23.339 40.119-29.941 15.732-6.6 33.068-10.869 49.164-17.029 9.722-3.721 19.181-8.3124 27.225-14.816zm-285.87 23.5c7.521 4.705 15.777 7.823 24.045 10.123 14.584 4.059 29.614 6.1762 43.334 10.576 13.719 4.398 25.952 10.73 36.297 23.248 9.185 11.117 17.042 27.567 21.85 52.812-57.369 4.375-89.252-7.5282-106.35-27.033-14.876-16.975-19.902-41.514-19.18-69.727z"/>
</svg>
