<?xml version="1.0" encoding="utf-8"?>
<svg xmlns="http://www.w3.org/2000/svg" xml:space="preserve" viewBox="0 0 64 64">
	<title>ND logo.</title>
	<path d="m31.944 0c8.9526 0 16.533 3.1055 22.744 9.3145 6.207 6.1719 9.3135 13.731 9.3135 22.686s-3.0488 16.457-9.1455 22.514c-6.4375 6.3242-14.076 9.4863-22.913 9.4863-8.6489 0-16.153-3.1426-22.514-9.4297-6.2852-6.2842-9.4292-13.809-9.4292-22.569 0-8.7236 3.144-16.285 9.4292-22.685 6.2109-6.2109 13.716-9.3164 22.515-9.3164zm0.1167 5.7715c-7.2754 0-13.43 2.5703-18.458 7.7148-5.2202 5.2969-7.8291 11.468-7.8291 18.514 0 7.125 2.5898 13.257 7.77 18.4 5.1812 5.1816 11.352 7.7705 18.516 7.7705 7.123 0 13.332-2.6084 18.627-7.8281 5.0283-4.876 7.543-10.989 7.543-18.343 0-7.3125-2.5537-13.484-7.6562-18.514-5.0674-5.1445-11.238-7.7148-18.512-7.7148zm12.057 18.685v5.4854h-23.257v-5.4854h23.257zm0 10.287v5.4814h-23.257v-5.4814h23.257z"/>
</svg>
